ISO-10303-21;
HEADER;
FILE_DESCRIPTION(('Open CASCADE Model'),'2;1');
FILE_NAME('Open CASCADE Shape Model','2026-09-25T04:38:43',('Author'),(
    'Open CASCADE'),'Open CASCADE STEP processor 7.9','Open CASCADE 7.9'
  ,'Unknown');
FILE_SCHEMA(('AUTOMOTIVE_DESIGN { 1 0 10303 214 1 1 1 1 }'));
ENDSEC;
DATA;
#1 = APPLICATION_PROTOCOL_DEFINITION('international standard',
  'automotive_design',2000,#2);
#2 = APPLICATION_CONTEXT(
  'core data for automotive mechanical design processes');
#3 = SHAPE_DEFINITION_REPRESENTATION(#4,#10);
#4 = PRODUCT_DEFINITION_SHAPE('','',#5);
#5 = PRODUCT_DEFINITION('design','',#6,#9);
#6 = PRODUCT_DEFINITION_FORMATION('','',#7);
#7 = PRODUCT('Open CASCADE STEP translator 7.9 1',
  'Open CASCADE STEP translator 7.9 1','',(#8));
#8 = PRODUCT_CONTEXT('',#2,'mechanical');
#9 = PRODUCT_DEFINITION_CONTEXT('part definition',#2,'design');
#10 = ADVANCED_BREP_SHAPE_REPRESENTATION('',(#11,#15),#1642);
#11 = AXIS2_PLACEMENT_3D('',#12,#13,#14);
#12 = CARTESIAN_POINT('',(0.,0.,0.));
#13 = DIRECTION('',(0.,0.,1.));
#14 = DIRECTION('',(1.,0.,-0.));
#15 = MANIFOLD_SOLID_BREP('',#16);
#16 = CLOSED_SHELL('',(#17,#626,#723,#772,#827,#891,#998,#1109,#1173,
    #1265,#1380,#1444,#1493,#1520,#1571,#1633));
#17 = ADVANCED_FACE('',(#18),#33,.F.);
#18 = FACE_BOUND('',#19,.F.);
#19 = EDGE_LOOP('',(#20,#58,#89,#112,#143,#231,#262,#290,#318,#349,#433,
    #464,#487,#518,#541,#572,#600));
#20 = ORIENTED_EDGE('',*,*,#21,.T.);
#21 = EDGE_CURVE('',#22,#24,#26,.T.);
#22 = VERTEX_POINT('',#23);
#23 = CARTESIAN_POINT('',(-36.49723945377,178.662985938,-125.));
#24 = VERTEX_POINT('',#25);
#25 = CARTESIAN_POINT('',(-106.725022774,168.224602912,-125.));
#26 = SURFACE_CURVE('',#27,(#32,#44),.PCURVE_S1.);
#27 = ELLIPSE('',#28,300.,180.);
#28 = AXIS2_PLACEMENT_3D('',#29,#30,#31);
#29 = CARTESIAN_POINT('',(0.,0.,-125.));
#30 = DIRECTION('',(0.,0.,1.));
#31 = DIRECTION('',(1.,0.,-0.));
#32 = PCURVE('',#33,#38);
#33 = PLANE('',#34);
#34 = AXIS2_PLACEMENT_3D('',#35,#36,#37);
#35 = CARTESIAN_POINT('',(19.51363749079,-2.815182565418E-15,-125.));
#36 = DIRECTION('',(0.,0.,1.));
#37 = DIRECTION('',(1.,0.,-0.));
#38 = DEFINITIONAL_REPRESENTATION('',(#39),#43);
#39 = ELLIPSE('',#40,300.,180.);
#40 = AXIS2_PLACEMENT_2D('',#41,#42);
#41 = CARTESIAN_POINT('',(-19.51363749079,2.815182565418E-15));
#42 = DIRECTION('',(1.,0.));
#43 = ( GEOMETRIC_REPRESENTATION_CONTEXT(2) 
PARAMETRIC_REPRESENTATION_CONTEXT() REPRESENTATION_CONTEXT('2D SPACE',''
  ) );
#44 = PCURVE('',#45,#53);
#45 = SURFACE_OF_LINEAR_EXTRUSION('',#46,#51);
#46 = ELLIPSE('',#47,300.,180.);
#47 = AXIS2_PLACEMENT_3D('',#48,#49,#50);
#48 = CARTESIAN_POINT('',(0.,0.,-125.));
#49 = DIRECTION('',(0.,0.,1.));
#50 = DIRECTION('',(1.,0.,-0.));
#51 = VECTOR('',#52,1.);
#52 = DIRECTION('',(-0.,-0.,-1.));
#53 = DEFINITIONAL_REPRESENTATION('',(#54),#57);
#54 = B_SPLINE_CURVE_WITH_KNOTS('',1,(#55,#56),.UNSPECIFIED.,.F.,.F.,(2,
    2),(1.6927559075,1.934512851372),.PIECEWISE_BEZIER_KNOTS.);
#55 = CARTESIAN_POINT('',(1.6927559075,0.));
#56 = CARTESIAN_POINT('',(1.934512851372,0.));
#57 = ( GEOMETRIC_REPRESENTATION_CONTEXT(2) 
PARAMETRIC_REPRESENTATION_CONTEXT() REPRESENTATION_CONTEXT('2D SPACE',''
  ) );
#58 = ORIENTED_EDGE('',*,*,#59,.T.);
#59 = EDGE_CURVE('',#24,#60,#62,.T.);
#60 = VERTEX_POINT('',#61);
#61 = CARTESIAN_POINT('',(-192.521003214,141.15486509,-125.));
#62 = SURFACE_CURVE('',#63,(#68,#75),.PCURVE_S1.);
#63 = ELLIPSE('',#64,45.,45.);
#64 = AXIS2_PLACEMENT_3D('',#65,#66,#67);
#65 = CARTESIAN_POINT('',(-150.,155.884572681,-125.));
#66 = DIRECTION('',(0.,0.,1.));
#67 = DIRECTION('',(-0.944911182523,-0.327326835354,0.));
#68 = PCURVE('',#33,#69);
#69 = DEFINITIONAL_REPRESENTATION('',(#70),#74);
#70 = CIRCLE('',#71,45.);
#71 = AXIS2_PLACEMENT_2D('',#72,#73);
#72 = CARTESIAN_POINT('',(-169.5136374907,155.884572681));
#73 = DIRECTION('',(-0.944911182523,-0.327326835354));
#74 = ( GEOMETRIC_REPRESENTATION_CONTEXT(2) 
PARAMETRIC_REPRESENTATION_CONTEXT() REPRESENTATION_CONTEXT('2D SPACE',''
  ) );
#75 = PCURVE('',#76,#84);
#76 = SURFACE_OF_LINEAR_EXTRUSION('',#77,#82);
#77 = ELLIPSE('',#78,45.,45.);
#78 = AXIS2_PLACEMENT_3D('',#79,#80,#81);
#79 = CARTESIAN_POINT('',(-150.,155.884572681,-125.));
#80 = DIRECTION('',(0.,0.,1.));
#81 = DIRECTION('',(-0.944911182523,-0.327326835354,0.));
#82 = VECTOR('',#83,1.);
#83 = DIRECTION('',(-0.,-0.,-1.));
#84 = DEFINITIONAL_REPRESENTATION('',(#85),#88);
#85 = B_SPLINE_CURVE_WITH_KNOTS('',1,(#86,#87),.UNSPECIFIED.,.F.,.F.,(2,
    2),(3.085901007621,6.28318530718),.PIECEWISE_BEZIER_KNOTS.);
#86 = CARTESIAN_POINT('',(3.085901007621,0.));
#87 = CARTESIAN_POINT('',(6.28318530718,0.));
#88 = ( GEOMETRIC_REPRESENTATION_CONTEXT(2) 
PARAMETRIC_REPRESENTATION_CONTEXT() REPRESENTATION_CONTEXT('2D SPACE',''
  ) );
#89 = ORIENTED_EDGE('',*,*,#90,.T.);
#90 = EDGE_CURVE('',#60,#91,#93,.T.);
#91 = VERTEX_POINT('',#92);
#92 = CARTESIAN_POINT('',(-191.524918109,138.544411896,-125.));
#93 = SURFACE_CURVE('',#94,(#99,#106),.PCURVE_S1.);
#94 = ELLIPSE('',#95,45.,45.);
#95 = AXIS2_PLACEMENT_3D('',#96,#97,#98);
#96 = CARTESIAN_POINT('',(-150.,155.884572681,-125.));
#97 = DIRECTION('',(0.,0.,1.));
#98 = DIRECTION('',(-0.944911182523,-0.327326835354,0.));
#99 = PCURVE('',#33,#100);
#100 = DEFINITIONAL_REPRESENTATION('',(#101),#105);
#101 = CIRCLE('',#102,45.);
#102 = AXIS2_PLACEMENT_2D('',#103,#104);
#103 = CARTESIAN_POINT('',(-169.5136374907,155.884572681));
#104 = DIRECTION('',(-0.944911182523,-0.327326835354));
#105 = ( GEOMETRIC_REPRESENTATION_CONTEXT(2) 
PARAMETRIC_REPRESENTATION_CONTEXT() REPRESENTATION_CONTEXT('2D SPACE',''
  ) );
#106 = PCURVE('',#76,#107);
#107 = DEFINITIONAL_REPRESENTATION('',(#108),#111);
#108 = B_SPLINE_CURVE_WITH_KNOTS('',1,(#109,#110),.UNSPECIFIED.,.F.,.F.,
  (2,2),(0.,6.20997233865E-02),.PIECEWISE_BEZIER_KNOTS.);
#109 = CARTESIAN_POINT('',(6.28318530718,0.));
#110 = CARTESIAN_POINT('',(6.345285030566,0.));
#111 = ( GEOMETRIC_REPRESENTATION_CONTEXT(2) 
PARAMETRIC_REPRESENTATION_CONTEXT() REPRESENTATION_CONTEXT('2D SPACE',''
  ) );
#112 = ORIENTED_EDGE('',*,*,#113,.T.);
#113 = EDGE_CURVE('',#91,#114,#116,.T.);
#114 = VERTEX_POINT('',#115);
#115 = CARTESIAN_POINT('',(-204.472050506,-131.714938417,-125.));
#116 = SURFACE_CURVE('',#117,(#122,#129),.PCURVE_S1.);
#117 = ELLIPSE('',#118,300.,180.);
#118 = AXIS2_PLACEMENT_3D('',#119,#120,#121);
#119 = CARTESIAN_POINT('',(0.,0.,-125.));
#120 = DIRECTION('',(0.,0.,1.));
#121 = DIRECTION('',(1.,0.,-0.));
#122 = PCURVE('',#33,#123);
#123 = DEFINITIONAL_REPRESENTATION('',(#124),#128);
#124 = ELLIPSE('',#125,300.,180.);
#125 = AXIS2_PLACEMENT_2D('',#126,#127);
#126 = CARTESIAN_POINT('',(-19.51363749079,2.815182565418E-15));
#127 = DIRECTION('',(1.,0.));
#128 = ( GEOMETRIC_REPRESENTATION_CONTEXT(2) 
PARAMETRIC_REPRESENTATION_CONTEXT() REPRESENTATION_CONTEXT('2D SPACE',''
  ) );
#129 = PCURVE('',#130,#138);
#130 = SURFACE_OF_LINEAR_EXTRUSION('',#131,#136);
#131 = ELLIPSE('',#132,300.,180.);
#132 = AXIS2_PLACEMENT_3D('',#133,#134,#135);
#133 = CARTESIAN_POINT('',(0.,0.,-125.));
#134 = DIRECTION('',(0.,0.,1.));
#135 = DIRECTION('',(1.,0.,-0.));
#136 = VECTOR('',#137,1.);
#137 = DIRECTION('',(-0.,-0.,-1.));
#138 = DEFINITIONAL_REPRESENTATION('',(#139),#142);
#139 = B_SPLINE_CURVE_WITH_KNOTS('',1,(#140,#141),.UNSPECIFIED.,.F.,.F.,
  (2,2),(2.263235375645,3.962478165321),.PIECEWISE_BEZIER_KNOTS.);
#140 = CARTESIAN_POINT('',(2.263235375645,0.));
#141 = CARTESIAN_POINT('',(3.962478165321,0.));
#142 = ( GEOMETRIC_REPRESENTATION_CONTEXT(2) 
PARAMETRIC_REPRESENTATION_CONTEXT() REPRESENTATION_CONTEXT('2D SPACE',''
  ) );
#143 = ORIENTED_EDGE('',*,*,#144,.T.);
#144 = EDGE_CURVE('',#114,#145,#147,.T.);
#145 = VERTEX_POINT('',#146);
#146 = CARTESIAN_POINT('',(-92.32144010421,-171.264796765,-125.));
#147 = SURFACE_CURVE('',#148,(#175,#205),.PCURVE_S1.);
#148 = B_SPLINE_CURVE_WITH_KNOTS('',7,(#149,#150,#151,#152,#153,#154,
    #155,#156,#157,#158,#159,#160,#161,#162,#163,#164,#165,#166,#167,
    #168,#169,#170,#171,#172,#173,#174),.UNSPECIFIED.,.F.,.F.,(8,6,6,6,8
    ),(0.,1.689163677064E-02,0.278149388623,0.639074694311,1.),
  .UNSPECIFIED.);
#149 = CARTESIAN_POINT('',(-180.559866042,-180.,-125.));
#150 = CARTESIAN_POINT('',(-181.156347925,-179.636037016,-125.));
#151 = CARTESIAN_POINT('',(-181.673461058,-179.313154075,-125.));
#152 = CARTESIAN_POINT('',(-182.171148406,-178.997959487,-125.));
#153 = CARTESIAN_POINT('',(-182.676013537,-178.673087799,-125.));
#154 = CARTESIAN_POINT('',(-183.199641937,-178.329963069,-125.));
#155 = CARTESIAN_POINT('',(-183.723568232,-177.979430518,-125.));
#156 = CARTESIAN_POINT('',(-191.785563399,-172.496821617,-125.));
#157 = CARTESIAN_POINT('',(-198.307009939,-166.676918883,-125.));
#158 = CARTESIAN_POINT('',(-203.451416273,-160.407402525,-125.));
#159 = CARTESIAN_POINT('',(-206.958243661,-153.953989611,-125.));
#160 = CARTESIAN_POINT('',(-208.671542164,-147.600485213,-125.));
#161 = CARTESIAN_POINT('',(-208.556667229,-141.620082821,-125.));
#162 = CARTESIAN_POINT('',(-204.122339333,-128.819280797,-125.));
#163 = CARTESIAN_POINT('',(-198.215286742,-122.548512729,-125.));
#164 = CARTESIAN_POINT('',(-189.185838492,-118.046086685,-125.));
#165 = CARTESIAN_POINT('',(-177.662868271,-115.781561857,-125.));
#166 = CARTESIAN_POINT('',(-164.645188123,-115.944266764,-125.));
#167 = CARTESIAN_POINT('',(-151.258101727,-118.408235104,-125.));
#168 = CARTESIAN_POINT('',(-125.829019798,-127.217127482,-125.));
#169 = CARTESIAN_POINT('',(-113.786409647,-133.56226443,-125.));
#170 = CARTESIAN_POINT('',(-103.457584829,-141.48702608,-125.));
#171 = CARTESIAN_POINT('',(-95.80463396109,-150.394284829,-125.));
#172 = CARTESIAN_POINT('',(-91.49522128789,-159.51742784,-125.));
#173 = CARTESIAN_POINT('',(-90.73299742986,-168.09850104,-125.));
#174 = CARTESIAN_POINT('',(-93.30532904862,-175.524182802,-125.));
#175 = PCURVE('',#33,#176);
#176 = DEFINITIONAL_REPRESENTATION('',(#177),#204);
#177 = B_SPLINE_CURVE_WITH_KNOTS('',7,(#178,#179,#180,#181,#182,#183,
    #184,#185,#186,#187,#188,#189,#190,#191,#192,#193,#194,#195,#196,
    #197,#198,#199,#200,#201,#202,#203),.UNSPECIFIED.,.F.,.F.,(8,6,6,6,8
    ),(0.,1.689163677064E-02,0.278149388623,0.639074694311,1.),
  .UNSPECIFIED.);
#178 = CARTESIAN_POINT('',(-200.0735035327,-180.));
#179 = CARTESIAN_POINT('',(-200.6699854157,-179.636037016));
#180 = CARTESIAN_POINT('',(-201.1870985487,-179.313154075));
#181 = CARTESIAN_POINT('',(-201.6847858967,-178.997959487));
#182 = CARTESIAN_POINT('',(-202.1896510277,-178.673087799));
#183 = CARTESIAN_POINT('',(-202.7132794277,-178.329963069));
#184 = CARTESIAN_POINT('',(-203.2372057227,-177.979430518));
#185 = CARTESIAN_POINT('',(-211.2992008897,-172.496821617));
#186 = CARTESIAN_POINT('',(-217.8206474297,-166.676918883));
#187 = CARTESIAN_POINT('',(-222.9650537637,-160.407402525));
#188 = CARTESIAN_POINT('',(-226.4718811517,-153.953989611));
#189 = CARTESIAN_POINT('',(-228.1851796547,-147.600485213));
#190 = CARTESIAN_POINT('',(-228.0703047197,-141.620082821));
#191 = CARTESIAN_POINT('',(-223.6359768237,-128.819280797));
#192 = CARTESIAN_POINT('',(-217.7289242327,-122.548512729));
#193 = CARTESIAN_POINT('',(-208.6994759827,-118.046086685));
#194 = CARTESIAN_POINT('',(-197.1765057617,-115.781561857));
#195 = CARTESIAN_POINT('',(-184.1588256137,-115.944266764));
#196 = CARTESIAN_POINT('',(-170.7717392177,-118.408235104));
#197 = CARTESIAN_POINT('',(-145.3426572887,-127.217127482));
#198 = CARTESIAN_POINT('',(-133.3000471377,-133.56226443));
#199 = CARTESIAN_POINT('',(-122.9712223197,-141.48702608));
#200 = CARTESIAN_POINT('',(-115.3182714518,-150.394284829));
#201 = CARTESIAN_POINT('',(-111.0088587786,-159.51742784));
#202 = CARTESIAN_POINT('',(-110.2466349206,-168.09850104));
#203 = CARTESIAN_POINT('',(-112.8189665394,-175.524182802));
#204 = ( GEOMETRIC_REPRESENTATION_CONTEXT(2) 
PARAMETRIC_REPRESENTATION_CONTEXT() REPRESENTATION_CONTEXT('2D SPACE',''
  ) );
#205 = PCURVE('',#206,#214);
#206 = SURFACE_OF_LINEAR_EXTRUSION('',#207,#212);
#207 = ELLIPSE('',#208,60.,35.);
#208 = AXIS2_PLACEMENT_3D('',#209,#210,#211);
#209 = CARTESIAN_POINT('',(-150.,-155.884572681,-135.));
#210 = DIRECTION('',(0.,0.,1.));
#211 = DIRECTION('',(0.944911182523,-0.327326835354,0.));
#212 = VECTOR('',#213,1.);
#213 = DIRECTION('',(-0.,-0.,-1.));
#214 = DEFINITIONAL_REPRESENTATION('',(#215),#230);
#215 = B_SPLINE_CURVE_WITH_KNOTS('',7,(#216,#217,#218,#219,#220,#221,
    #222,#223,#224,#225,#226,#227,#228,#229),.UNSPECIFIED.,.F.,.F.,(8,6,
    8),(0.311120355627,0.639074694534,0.971406584277),.UNSPECIFIED.);
#216 = CARTESIAN_POINT('',(2.998014320109,-10.));
#217 = CARTESIAN_POINT('',(2.793996928483,-10.));
#218 = CARTESIAN_POINT('',(2.589995286961,-10.));
#219 = CARTESIAN_POINT('',(2.386049316988,-10.));
#220 = CARTESIAN_POINT('',(2.182172215315,-10.));
#221 = CARTESIAN_POINT('',(1.978354610294,-10.));
#222 = CARTESIAN_POINT('',(1.774573018889,-10.));
#223 = CARTESIAN_POINT('',(1.364299613275,-10.));
#224 = CARTESIAN_POINT('',(1.157797868779,-10.));
#225 = CARTESIAN_POINT('',(0.951258716345,-10.));
#226 = CARTESIAN_POINT('',(0.744657825981,-10.));
#227 = CARTESIAN_POINT('',(0.537985838924,-10.));
#228 = CARTESIAN_POINT('',(0.331257432583,-10.));
#229 = CARTESIAN_POINT('',(0.124515637831,-10.));
#230 = ( GEOMETRIC_REPRESENTATION_CONTEXT(2) 
PARAMETRIC_REPRESENTATION_CONTEXT() REPRESENTATION_CONTEXT('2D SPACE',''
  ) );
#231 = ORIENTED_EDGE('',*,*,#232,.T.);
#232 = EDGE_CURVE('',#145,#233,#235,.T.);
#233 = VERTEX_POINT('',#234);
#234 = CARTESIAN_POINT('',(-38.62350650343,-178.501991329,-125.));
#235 = SURFACE_CURVE('',#236,(#241,#248),.PCURVE_S1.);
#236 = ELLIPSE('',#237,300.,180.);
#237 = AXIS2_PLACEMENT_3D('',#238,#239,#240);
#238 = CARTESIAN_POINT('',(0.,0.,-125.));
#239 = DIRECTION('',(0.,0.,1.));
#240 = DIRECTION('',(1.,0.,-0.));
#241 = PCURVE('',#33,#242);
#242 = DEFINITIONAL_REPRESENTATION('',(#243),#247);
#243 = ELLIPSE('',#244,300.,180.);
#244 = AXIS2_PLACEMENT_2D('',#245,#246);
#245 = CARTESIAN_POINT('',(-19.51363749079,2.815182565418E-15));
#246 = DIRECTION('',(1.,0.));
#247 = ( GEOMETRIC_REPRESENTATION_CONTEXT(2) 
PARAMETRIC_REPRESENTATION_CONTEXT() REPRESENTATION_CONTEXT('2D SPACE',''
  ) );
#248 = PCURVE('',#249,#257);
#249 = SURFACE_OF_LINEAR_EXTRUSION('',#250,#255);
#250 = ELLIPSE('',#251,300.,180.);
#251 = AXIS2_PLACEMENT_3D('',#252,#253,#254);
#252 = CARTESIAN_POINT('',(0.,0.,-125.));
#253 = DIRECTION('',(0.,0.,1.));
#254 = DIRECTION('',(1.,0.,-0.));
#255 = VECTOR('',#256,1.);
#256 = DIRECTION('',(-0.,-0.,-1.));
#257 = DEFINITIONAL_REPRESENTATION('',(#258),#261);
#258 = B_SPLINE_CURVE_WITH_KNOTS('',1,(#259,#260),.UNSPECIFIED.,.F.,.F.,
  (2,2),(4.399574095518,4.583285615236),.PIECEWISE_BEZIER_KNOTS.);
#259 = CARTESIAN_POINT('',(4.399574095518,0.));
#260 = CARTESIAN_POINT('',(4.583285615236,0.));
#261 = ( GEOMETRIC_REPRESENTATION_CONTEXT(2) 
PARAMETRIC_REPRESENTATION_CONTEXT() REPRESENTATION_CONTEXT('2D SPACE',''
  ) );
#262 = ORIENTED_EDGE('',*,*,#263,.F.);
#263 = EDGE_CURVE('',#264,#233,#266,.T.);
#264 = VERTEX_POINT('',#265);
#265 = CARTESIAN_POINT('',(0.,-230.,-125.));
#266 = SURFACE_CURVE('',#267,(#271,#278),.PCURVE_S1.);
#267 = LINE('',#268,#269);
#268 = CARTESIAN_POINT('',(0.,-230.,-125.));
#269 = VECTOR('',#270,1.);
#270 = DIRECTION('',(-0.6,0.8,0.));
#271 = PCURVE('',#33,#272);
#272 = DEFINITIONAL_REPRESENTATION('',(#273),#277);
#273 = LINE('',#274,#275);
#274 = CARTESIAN_POINT('',(-19.51363749079,-230.));
#275 = VECTOR('',#276,1.);
#276 = DIRECTION('',(-0.6,0.8));
#277 = ( GEOMETRIC_REPRESENTATION_CONTEXT(2) 
PARAMETRIC_REPRESENTATION_CONTEXT() REPRESENTATION_CONTEXT('2D SPACE',''
  ) );
#278 = PCURVE('',#279,#284);
#279 = PLANE('',#280);
#280 = AXIS2_PLACEMENT_3D('',#281,#282,#283);
#281 = CARTESIAN_POINT('',(0.,-230.,-125.));
#282 = DIRECTION('',(-0.8,-0.6,0.));
#283 = DIRECTION('',(-0.6,0.8,0.));
#284 = DEFINITIONAL_REPRESENTATION('',(#285),#289);
#285 = LINE('',#286,#287);
#286 = CARTESIAN_POINT('',(0.,0.));
#287 = VECTOR('',#288,1.);
#288 = DIRECTION('',(1.,0.));
#289 = ( GEOMETRIC_REPRESENTATION_CONTEXT(2) 
PARAMETRIC_REPRESENTATION_CONTEXT() REPRESENTATION_CONTEXT('2D SPACE',''
  ) );
#290 = ORIENTED_EDGE('',*,*,#291,.F.);
#291 = EDGE_CURVE('',#292,#264,#294,.T.);
#292 = VERTEX_POINT('',#293);
#293 = CARTESIAN_POINT('',(38.62350650343,-178.501991329,-125.));
#294 = SURFACE_CURVE('',#295,(#299,#306),.PCURVE_S1.);
#295 = LINE('',#296,#297);
#296 = CARTESIAN_POINT('',(45.,-170.,-125.));
#297 = VECTOR('',#298,1.);
#298 = DIRECTION('',(-0.6,-0.8,0.));
#299 = PCURVE('',#33,#300);
#300 = DEFINITIONAL_REPRESENTATION('',(#301),#305);
#301 = LINE('',#302,#303);
#302 = CARTESIAN_POINT('',(25.48636250921,-170.));
#303 = VECTOR('',#304,1.);
#304 = DIRECTION('',(-0.6,-0.8));
#305 = ( GEOMETRIC_REPRESENTATION_CONTEXT(2) 
PARAMETRIC_REPRESENTATION_CONTEXT() REPRESENTATION_CONTEXT('2D SPACE',''
  ) );
#306 = PCURVE('',#307,#312);
#307 = PLANE('',#308);
#308 = AXIS2_PLACEMENT_3D('',#309,#310,#311);
#309 = CARTESIAN_POINT('',(45.,-170.,-125.));
#310 = DIRECTION('',(0.8,-0.6,0.));
#311 = DIRECTION('',(-0.6,-0.8,0.));
#312 = DEFINITIONAL_REPRESENTATION('',(#313),#317);
#313 = LINE('',#314,#315);
#314 = CARTESIAN_POINT('',(0.,0.));
#315 = VECTOR('',#316,1.);
#316 = DIRECTION('',(1.,0.));
#317 = ( GEOMETRIC_REPRESENTATION_CONTEXT(2) 
PARAMETRIC_REPRESENTATION_CONTEXT() REPRESENTATION_CONTEXT('2D SPACE',''
  ) );
#318 = ORIENTED_EDGE('',*,*,#319,.T.);
#319 = EDGE_CURVE('',#292,#320,#322,.T.);
#320 = VERTEX_POINT('',#321);
#321 = CARTESIAN_POINT('',(106.725022774,-168.224602912,-125.));
#322 = SURFACE_CURVE('',#323,(#328,#335),.PCURVE_S1.);
#323 = ELLIPSE('',#324,300.,180.);
#324 = AXIS2_PLACEMENT_3D('',#325,#326,#327);
#325 = CARTESIAN_POINT('',(0.,0.,-125.));
#326 = DIRECTION('',(0.,0.,1.));
#327 = DIRECTION('',(1.,0.,-0.));
#328 = PCURVE('',#33,#329);
#329 = DEFINITIONAL_REPRESENTATION('',(#330),#334);
#330 = ELLIPSE('',#331,300.,180.);
#331 = AXIS2_PLACEMENT_2D('',#332,#333);
#332 = CARTESIAN_POINT('',(-19.51363749079,2.815182565418E-15));
#333 = DIRECTION('',(1.,0.));
#334 = ( GEOMETRIC_REPRESENTATION_CONTEXT(2) 
PARAMETRIC_REPRESENTATION_CONTEXT() REPRESENTATION_CONTEXT('2D SPACE',''
  ) );
#335 = PCURVE('',#336,#344);
#336 = SURFACE_OF_LINEAR_EXTRUSION('',#337,#342);
#337 = ELLIPSE('',#338,300.,180.);
#338 = AXIS2_PLACEMENT_3D('',#339,#340,#341);
#339 = CARTESIAN_POINT('',(0.,0.,-125.));
#340 = DIRECTION('',(0.,0.,1.));
#341 = DIRECTION('',(1.,0.,-0.));
#342 = VECTOR('',#343,1.);
#343 = DIRECTION('',(-0.,-0.,-1.));
#344 = DEFINITIONAL_REPRESENTATION('',(#345),#348);
#345 = B_SPLINE_CURVE_WITH_KNOTS('',1,(#346,#347),.UNSPECIFIED.,.F.,.F.,
  (2,2),(4.841492345534,5.076105504962),.PIECEWISE_BEZIER_KNOTS.);
#346 = CARTESIAN_POINT('',(4.841492345534,0.));
#347 = CARTESIAN_POINT('',(5.076105504962,0.));
#348 = ( GEOMETRIC_REPRESENTATION_CONTEXT(2) 
PARAMETRIC_REPRESENTATION_CONTEXT() REPRESENTATION_CONTEXT('2D SPACE',''
  ) );
#349 = ORIENTED_EDGE('',*,*,#350,.T.);
#350 = EDGE_CURVE('',#320,#351,#353,.T.);
#351 = VERTEX_POINT('',#352);
#352 = CARTESIAN_POINT('',(191.524918109,-138.544411896,-125.));
#353 = SURFACE_CURVE('',#354,(#378,#405),.PCURVE_S1.);
#354 = B_SPLINE_CURVE_WITH_KNOTS('',8,(#355,#356,#357,#358,#359,#360,
    #361,#362,#363,#364,#365,#366,#367,#368,#369,#370,#371,#372,#373,
    #374,#375,#376,#377),.UNSPECIFIED.,.F.,.F.,(9,7,7,9),(0.,
    2.965646709415E-02,0.502581604397,1.),.UNSPECIFIED.);
#355 = CARTESIAN_POINT('',(111.096884781,-178.501991329,-125.));
#356 = CARTESIAN_POINT('',(110.817288271,-178.021073493,-125.));
#357 = CARTESIAN_POINT('',(110.544902278,-177.53692128,-125.));
#358 = CARTESIAN_POINT('',(110.277894125,-177.046382489,-125.));
#359 = CARTESIAN_POINT('',(110.020279252,-176.556368803,-125.));
#360 = CARTESIAN_POINT('',(109.767140111,-176.058432195,-125.));
#361 = CARTESIAN_POINT('',(109.52264177,-175.559751912,-125.));
#362 = CARTESIAN_POINT('',(109.284641612,-175.056663008,-125.));
#363 = CARTESIAN_POINT('',(105.374220216,-166.478647186,-125.));
#364 = CARTESIAN_POINT('',(103.513052341,-157.577613915,-125.));
#365 = CARTESIAN_POINT('',(103.688283712,-148.325514323,-125.));
#366 = CARTESIAN_POINT('',(105.967708939,-139.269518164,-125.));
#367 = CARTESIAN_POINT('',(110.239014101,-130.9651339,-125.));
#368 = CARTESIAN_POINT('',(116.219538862,-123.903591824,-125.));
#369 = CARTESIAN_POINT('',(123.496919598,-118.450879768,-125.));
#370 = CARTESIAN_POINT('',(140.105762606,-111.005166149,-125.));
#371 = CARTESIAN_POINT('',(149.524477137,-109.205810934,-125.));
#372 = CARTESIAN_POINT('',(159.289978527,-109.673916506,-125.));
#373 = CARTESIAN_POINT('',(168.760865847,-112.475477843,-125.));
#374 = CARTESIAN_POINT('',(177.291011672,-117.453737053,-125.));
#375 = CARTESIAN_POINT('',(184.32350223,-124.245512725,-125.));
#376 = CARTESIAN_POINT('',(189.466900628,-132.33843034,-125.));
#377 = CARTESIAN_POINT('',(192.521003214,-141.15486509,-125.));
#378 = PCURVE('',#33,#379);
#379 = DEFINITIONAL_REPRESENTATION('',(#380),#404);
#380 = B_SPLINE_CURVE_WITH_KNOTS('',8,(#381,#382,#383,#384,#385,#386,
    #387,#388,#389,#390,#391,#392,#393,#394,#395,#396,#397,#398,#399,
    #400,#401,#402,#403),.UNSPECIFIED.,.F.,.F.,(9,7,7,9),(0.,
    2.965646709415E-02,0.502581604397,1.),.UNSPECIFIED.);
#381 = CARTESIAN_POINT('',(91.58324729021,-178.501991329));
#382 = CARTESIAN_POINT('',(91.30365078021,-178.021073493));
#383 = CARTESIAN_POINT('',(91.03126478721,-177.53692128));
#384 = CARTESIAN_POINT('',(90.76425663421,-177.046382489));
#385 = CARTESIAN_POINT('',(90.50664176121,-176.556368803));
#386 = CARTESIAN_POINT('',(90.25350262021,-176.058432195));
#387 = CARTESIAN_POINT('',(90.00900427921,-175.559751912));
#388 = CARTESIAN_POINT('',(89.77100412121,-175.056663008));
#389 = CARTESIAN_POINT('',(85.86058272521,-166.478647186));
#390 = CARTESIAN_POINT('',(83.99941485021,-157.577613915));
#391 = CARTESIAN_POINT('',(84.17464622121,-148.325514323));
#392 = CARTESIAN_POINT('',(86.45407144821,-139.269518164));
#393 = CARTESIAN_POINT('',(90.72537661021,-130.9651339));
#394 = CARTESIAN_POINT('',(96.70590137121,-123.903591824));
#395 = CARTESIAN_POINT('',(103.98328210721,-118.450879768));
#396 = CARTESIAN_POINT('',(120.59212511521,-111.005166149));
#397 = CARTESIAN_POINT('',(130.01083964621,-109.205810934));
#398 = CARTESIAN_POINT('',(139.77634103621,-109.673916506));
#399 = CARTESIAN_POINT('',(149.24722835621,-112.475477843));
#400 = CARTESIAN_POINT('',(157.77737418121,-117.453737053));
#401 = CARTESIAN_POINT('',(164.80986473921,-124.245512725));
#402 = CARTESIAN_POINT('',(169.95326313721,-132.33843034));
#403 = CARTESIAN_POINT('',(173.00736572321,-141.15486509));
#404 = ( GEOMETRIC_REPRESENTATION_CONTEXT(2) 
PARAMETRIC_REPRESENTATION_CONTEXT() REPRESENTATION_CONTEXT('2D SPACE',''
  ) );
#405 = PCURVE('',#406,#414);
#406 = SURFACE_OF_LINEAR_EXTRUSION('',#407,#412);
#407 = ELLIPSE('',#408,45.,45.);
#408 = AXIS2_PLACEMENT_3D('',#409,#410,#411);
#409 = CARTESIAN_POINT('',(150.,-155.884572681,-135.));
#410 = DIRECTION('',(0.,0.,1.));
#411 = DIRECTION('',(0.944911182523,0.327326835354,-0.));
#412 = VECTOR('',#413,1.);
#413 = DIRECTION('',(-0.,-0.,-1.));
#414 = DEFINITIONAL_REPRESENTATION('',(#415),#432);
#415 = B_SPLINE_CURVE_WITH_KNOTS('',8,(#416,#417,#418,#419,#420,#421,
    #422,#423,#424,#425,#426,#427,#428,#429,#430,#431),.UNSPECIFIED.,.F.
  ,.F.,(9,7,9),(7.461951420955E-02,0.50258160685,0.981377811804),
  .UNSPECIFIED.);
#416 = CARTESIAN_POINT('',(3.085901007619,-10.));
#417 = CARTESIAN_POINT('',(2.907508200065,-10.));
#418 = CARTESIAN_POINT('',(2.729114154564,-10.));
#419 = CARTESIAN_POINT('',(2.550722045478,-10.));
#420 = CARTESIAN_POINT('',(2.372331500041,-10.));
#421 = CARTESIAN_POINT('',(2.193940325838,-10.));
#422 = CARTESIAN_POINT('',(2.015546806588,-10.));
#423 = CARTESIAN_POINT('',(1.837151931196,-10.));
#424 = CARTESIAN_POINT('',(1.459180303787,-10.));
#425 = CARTESIAN_POINT('',(1.259594029645,-10.));
#426 = CARTESIAN_POINT('',(1.060010248528,-10.));
#427 = CARTESIAN_POINT('',(0.86043010786,-10.));
#428 = CARTESIAN_POINT('',(0.660850365282,-10.));
#429 = CARTESIAN_POINT('',(0.461267459564,-10.));
#430 = CARTESIAN_POINT('',(0.261681636108,-10.));
#431 = CARTESIAN_POINT('',(6.209972338221E-02,-10.));
#432 = ( GEOMETRIC_REPRESENTATION_CONTEXT(2) 
PARAMETRIC_REPRESENTATION_CONTEXT() REPRESENTATION_CONTEXT('2D SPACE',''
  ) );
#433 = ORIENTED_EDGE('',*,*,#434,.T.);
#434 = EDGE_CURVE('',#351,#435,#437,.T.);
#435 = VERTEX_POINT('',#436);
#436 = CARTESIAN_POINT('',(300.,0.,-125.));
#437 = SURFACE_CURVE('',#438,(#443,#450),.PCURVE_S1.);
#438 = ELLIPSE('',#439,300.,180.);
#439 = AXIS2_PLACEMENT_3D('',#440,#441,#442);
#440 = CARTESIAN_POINT('',(0.,0.,-125.));
#441 = DIRECTION('',(0.,0.,1.));
#442 = DIRECTION('',(1.,0.,-0.));
#443 = PCURVE('',#33,#444);
#444 = DEFINITIONAL_REPRESENTATION('',(#445),#449);
#445 = ELLIPSE('',#446,300.,180.);
#446 = AXIS2_PLACEMENT_2D('',#447,#448);
#447 = CARTESIAN_POINT('',(-19.51363749079,2.815182565418E-15));
#448 = DIRECTION('',(1.,0.));
#449 = ( GEOMETRIC_REPRESENTATION_CONTEXT(2) 
PARAMETRIC_REPRESENTATION_CONTEXT() REPRESENTATION_CONTEXT('2D SPACE',''
  ) );
#450 = PCURVE('',#451,#459);
#451 = SURFACE_OF_LINEAR_EXTRUSION('',#452,#457);
#452 = ELLIPSE('',#453,300.,180.);
#453 = AXIS2_PLACEMENT_3D('',#454,#455,#456);
#454 = CARTESIAN_POINT('',(0.,0.,-125.));
#455 = DIRECTION('',(0.,0.,1.));
#456 = DIRECTION('',(1.,0.,-0.));
#457 = VECTOR('',#458,1.);
#458 = DIRECTION('',(-0.,-0.,-1.));
#459 = DEFINITIONAL_REPRESENTATION('',(#460),#463);
#460 = B_SPLINE_CURVE_WITH_KNOTS('',1,(#461,#462),.UNSPECIFIED.,.F.,.F.,
  (2,2),(5.404828029234,6.28318530718),.PIECEWISE_BEZIER_KNOTS.);
#461 = CARTESIAN_POINT('',(5.404828029234,0.));
#462 = CARTESIAN_POINT('',(6.28318530718,0.));
#463 = ( GEOMETRIC_REPRESENTATION_CONTEXT(2) 
PARAMETRIC_REPRESENTATION_CONTEXT() REPRESENTATION_CONTEXT('2D SPACE',''
  ) );
#464 = ORIENTED_EDGE('',*,*,#465,.T.);
#465 = EDGE_CURVE('',#435,#466,#468,.T.);
#466 = VERTEX_POINT('',#467);
#467 = CARTESIAN_POINT('',(204.472050506,131.714938417,-125.));
#468 = SURFACE_CURVE('',#469,(#474,#481),.PCURVE_S1.);
#469 = ELLIPSE('',#470,300.,180.);
#470 = AXIS2_PLACEMENT_3D('',#471,#472,#473);
#471 = CARTESIAN_POINT('',(0.,0.,-125.));
#472 = DIRECTION('',(0.,0.,1.));
#473 = DIRECTION('',(1.,0.,-0.));
#474 = PCURVE('',#33,#475);
#475 = DEFINITIONAL_REPRESENTATION('',(#476),#480);
#476 = ELLIPSE('',#477,300.,180.);
#477 = AXIS2_PLACEMENT_2D('',#478,#479);
#478 = CARTESIAN_POINT('',(-19.51363749079,2.815182565418E-15));
#479 = DIRECTION('',(1.,0.));
#480 = ( GEOMETRIC_REPRESENTATION_CONTEXT(2) 
PARAMETRIC_REPRESENTATION_CONTEXT() REPRESENTATION_CONTEXT('2D SPACE',''
  ) );
#481 = PCURVE('',#451,#482);
#482 = DEFINITIONAL_REPRESENTATION('',(#483),#486);
#483 = B_SPLINE_CURVE_WITH_KNOTS('',1,(#484,#485),.UNSPECIFIED.,.F.,.F.,
  (2,2),(0.,0.820885511732),.PIECEWISE_BEZIER_KNOTS.);
#484 = CARTESIAN_POINT('',(6.28318530718,0.));
#485 = CARTESIAN_POINT('',(7.104070818911,0.));
#486 = ( GEOMETRIC_REPRESENTATION_CONTEXT(2) 
PARAMETRIC_REPRESENTATION_CONTEXT() REPRESENTATION_CONTEXT('2D SPACE',''
  ) );
#487 = ORIENTED_EDGE('',*,*,#488,.T.);
#488 = EDGE_CURVE('',#466,#489,#491,.T.);
#489 = VERTEX_POINT('',#490);
#490 = CARTESIAN_POINT('',(93.30532904862,175.524182802,-125.));
#491 = SURFACE_CURVE('',#492,(#497,#504),.PCURVE_S1.);
#492 = ELLIPSE('',#493,60.,35.);
#493 = AXIS2_PLACEMENT_3D('',#494,#495,#496);
#494 = CARTESIAN_POINT('',(150.,155.884572681,-125.));
#495 = DIRECTION('',(0.,0.,1.));
#496 = DIRECTION('',(-0.944911182523,0.327326835354,0.));
#497 = PCURVE('',#33,#498);
#498 = DEFINITIONAL_REPRESENTATION('',(#499),#503);
#499 = ELLIPSE('',#500,60.,35.);
#500 = AXIS2_PLACEMENT_2D('',#501,#502);
#501 = CARTESIAN_POINT('',(130.48636250921,155.884572681));
#502 = DIRECTION('',(-0.944911182523,0.327326835354));
#503 = ( GEOMETRIC_REPRESENTATION_CONTEXT(2) 
PARAMETRIC_REPRESENTATION_CONTEXT() REPRESENTATION_CONTEXT('2D SPACE',''
  ) );
#504 = PCURVE('',#505,#513);
#505 = SURFACE_OF_LINEAR_EXTRUSION('',#506,#511);
#506 = ELLIPSE('',#507,60.,35.);
#507 = AXIS2_PLACEMENT_3D('',#508,#509,#510);
#508 = CARTESIAN_POINT('',(150.,155.884572681,-125.));
#509 = DIRECTION('',(0.,0.,1.));
#510 = DIRECTION('',(-0.944911182523,0.327326835354,0.));
#511 = VECTOR('',#512,1.);
#512 = DIRECTION('',(-0.,-0.,-1.));
#513 = DEFINITIONAL_REPRESENTATION('',(#514),#517);
#514 = B_SPLINE_CURVE_WITH_KNOTS('',1,(#515,#516),.UNSPECIFIED.,.F.,.F.,
  (2,2),(2.998014320112,6.28318530718),.PIECEWISE_BEZIER_KNOTS.);
#515 = CARTESIAN_POINT('',(2.998014320112,0.));
#516 = CARTESIAN_POINT('',(6.28318530718,0.));
#517 = ( GEOMETRIC_REPRESENTATION_CONTEXT(2) 
PARAMETRIC_REPRESENTATION_CONTEXT() REPRESENTATION_CONTEXT('2D SPACE',''
  ) );
#518 = ORIENTED_EDGE('',*,*,#519,.T.);
#519 = EDGE_CURVE('',#489,#520,#522,.T.);
#520 = VERTEX_POINT('',#521);
#521 = CARTESIAN_POINT('',(92.32144010421,171.264796765,-125.));
#522 = SURFACE_CURVE('',#523,(#528,#535),.PCURVE_S1.);
#523 = ELLIPSE('',#524,60.,35.);
#524 = AXIS2_PLACEMENT_3D('',#525,#526,#527);
#525 = CARTESIAN_POINT('',(150.,155.884572681,-125.));
#526 = DIRECTION('',(0.,0.,1.));
#527 = DIRECTION('',(-0.944911182523,0.327326835354,0.));
#528 = PCURVE('',#33,#529);
#529 = DEFINITIONAL_REPRESENTATION('',(#530),#534);
#530 = ELLIPSE('',#531,60.,35.);
#531 = AXIS2_PLACEMENT_2D('',#532,#533);
#532 = CARTESIAN_POINT('',(130.48636250921,155.884572681));
#533 = DIRECTION('',(-0.944911182523,0.327326835354));
#534 = ( GEOMETRIC_REPRESENTATION_CONTEXT(2) 
PARAMETRIC_REPRESENTATION_CONTEXT() REPRESENTATION_CONTEXT('2D SPACE',''
  ) );
#535 = PCURVE('',#505,#536);
#536 = DEFINITIONAL_REPRESENTATION('',(#537),#540);
#537 = B_SPLINE_CURVE_WITH_KNOTS('',1,(#538,#539),.UNSPECIFIED.,.F.,.F.,
  (2,2),(0.,0.124515637837),.PIECEWISE_BEZIER_KNOTS.);
#538 = CARTESIAN_POINT('',(6.28318530718,0.));
#539 = CARTESIAN_POINT('',(6.407700945017,0.));
#540 = ( GEOMETRIC_REPRESENTATION_CONTEXT(2) 
PARAMETRIC_REPRESENTATION_CONTEXT() REPRESENTATION_CONTEXT('2D SPACE',''
  ) );
#541 = ORIENTED_EDGE('',*,*,#542,.T.);
#542 = EDGE_CURVE('',#520,#543,#545,.T.);
#543 = VERTEX_POINT('',#544);
#544 = CARTESIAN_POINT('',(36.49723945377,178.662985938,-125.));
#545 = SURFACE_CURVE('',#546,(#551,#558),.PCURVE_S1.);
#546 = ELLIPSE('',#547,300.,180.);
#547 = AXIS2_PLACEMENT_3D('',#548,#549,#550);
#548 = CARTESIAN_POINT('',(0.,0.,-125.));
#549 = DIRECTION('',(0.,0.,1.));
#550 = DIRECTION('',(1.,0.,-0.));
#551 = PCURVE('',#33,#552);
#552 = DEFINITIONAL_REPRESENTATION('',(#553),#557);
#553 = ELLIPSE('',#554,300.,180.);
#554 = AXIS2_PLACEMENT_2D('',#555,#556);
#555 = CARTESIAN_POINT('',(-19.51363749079,2.815182565418E-15));
#556 = DIRECTION('',(1.,0.));
#557 = ( GEOMETRIC_REPRESENTATION_CONTEXT(2) 
PARAMETRIC_REPRESENTATION_CONTEXT() REPRESENTATION_CONTEXT('2D SPACE',''
  ) );
#558 = PCURVE('',#559,#567);
#559 = SURFACE_OF_LINEAR_EXTRUSION('',#560,#565);
#560 = ELLIPSE('',#561,300.,180.);
#561 = AXIS2_PLACEMENT_3D('',#562,#563,#564);
#562 = CARTESIAN_POINT('',(0.,0.,-125.));
#563 = DIRECTION('',(0.,0.,1.));
#564 = DIRECTION('',(1.,0.,-0.));
#565 = VECTOR('',#566,1.);
#566 = DIRECTION('',(-0.,-0.,-1.));
#567 = DEFINITIONAL_REPRESENTATION('',(#568),#571);
#568 = B_SPLINE_CURVE_WITH_KNOTS('',1,(#569,#570),.UNSPECIFIED.,.F.,.F.,
  (2,2),(1.257981441928,1.44883674609),.PIECEWISE_BEZIER_KNOTS.);
#569 = CARTESIAN_POINT('',(1.257981441928,0.));
#570 = CARTESIAN_POINT('',(1.44883674609,0.));
#571 = ( GEOMETRIC_REPRESENTATION_CONTEXT(2) 
PARAMETRIC_REPRESENTATION_CONTEXT() REPRESENTATION_CONTEXT('2D SPACE',''
  ) );
#572 = ORIENTED_EDGE('',*,*,#573,.T.);
#573 = EDGE_CURVE('',#543,#574,#576,.T.);
#574 = VERTEX_POINT('',#575);
#575 = CARTESIAN_POINT('',(0.,130.,-125.));
#576 = SURFACE_CURVE('',#577,(#581,#588),.PCURVE_S1.);
#577 = LINE('',#578,#579);
#578 = CARTESIAN_POINT('',(-27.68754525166,93.08327299779,-125.));
#579 = VECTOR('',#580,1.);
#580 = DIRECTION('',(-0.6,-0.8,0.));
#581 = PCURVE('',#33,#582);
#582 = DEFINITIONAL_REPRESENTATION('',(#583),#587);
#583 = LINE('',#584,#585);
#584 = CARTESIAN_POINT('',(-47.20118274245,93.08327299779));
#585 = VECTOR('',#586,1.);
#586 = DIRECTION('',(-0.6,-0.8));
#587 = ( GEOMETRIC_REPRESENTATION_CONTEXT(2) 
PARAMETRIC_REPRESENTATION_CONTEXT() REPRESENTATION_CONTEXT('2D SPACE',''
  ) );
#588 = PCURVE('',#589,#594);
#589 = PLANE('',#590);
#590 = AXIS2_PLACEMENT_3D('',#591,#592,#593);
#591 = CARTESIAN_POINT('',(0.,130.,-135.));
#592 = DIRECTION('',(-0.8,0.6,0.));
#593 = DIRECTION('',(0.6,0.8,0.));
#594 = DEFINITIONAL_REPRESENTATION('',(#595),#599);
#595 = LINE('',#596,#597);
#596 = CARTESIAN_POINT('',(-46.14590875276,-10.));
#597 = VECTOR('',#598,1.);
#598 = DIRECTION('',(-1.,-0.));
#599 = ( GEOMETRIC_REPRESENTATION_CONTEXT(2) 
PARAMETRIC_REPRESENTATION_CONTEXT() REPRESENTATION_CONTEXT('2D SPACE',''
  ) );
#600 = ORIENTED_EDGE('',*,*,#601,.T.);
#601 = EDGE_CURVE('',#574,#22,#602,.T.);
#602 = SURFACE_CURVE('',#603,(#607,#614),.PCURVE_S1.);
#603 = LINE('',#604,#605);
#604 = CARTESIAN_POINT('',(12.21245474834,113.716727002,-125.));
#605 = VECTOR('',#606,1.);
#606 = DIRECTION('',(-0.6,0.8,0.));
#607 = PCURVE('',#33,#608);
#608 = DEFINITIONAL_REPRESENTATION('',(#609),#613);
#609 = LINE('',#610,#611);
#610 = CARTESIAN_POINT('',(-7.30118274245,113.716727002));
#611 = VECTOR('',#612,1.);
#612 = DIRECTION('',(-0.6,0.8));
#613 = ( GEOMETRIC_REPRESENTATION_CONTEXT(2) 
PARAMETRIC_REPRESENTATION_CONTEXT() REPRESENTATION_CONTEXT('2D SPACE',''
  ) );
#614 = PCURVE('',#615,#620);
#615 = PLANE('',#616);
#616 = AXIS2_PLACEMENT_3D('',#617,#618,#619);
#617 = CARTESIAN_POINT('',(-45.,190.,-135.));
#618 = DIRECTION('',(0.8,0.6,-0.));
#619 = DIRECTION('',(0.6,-0.8,0.));
#620 = DEFINITIONAL_REPRESENTATION('',(#621),#625);
#621 = LINE('',#622,#623);
#622 = CARTESIAN_POINT('',(95.354091247404,-10.));
#623 = VECTOR('',#624,1.);
#624 = DIRECTION('',(-1.,-0.));
#625 = ( GEOMETRIC_REPRESENTATION_CONTEXT(2) 
PARAMETRIC_REPRESENTATION_CONTEXT() REPRESENTATION_CONTEXT('2D SPACE',''
  ) );
#626 = ADVANCED_FACE('',(#627),#45,.F.);
#627 = FACE_BOUND('',#628,.F.);
#628 = EDGE_LOOP('',(#629,#630,#659,#687));
#629 = ORIENTED_EDGE('',*,*,#21,.F.);
#630 = ORIENTED_EDGE('',*,*,#631,.F.);
#631 = EDGE_CURVE('',#632,#22,#634,.T.);
#632 = VERTEX_POINT('',#633);
#633 = CARTESIAN_POINT('',(-36.49723945377,178.662985938,125.));
#634 = SURFACE_CURVE('',#635,(#641,#650),.PCURVE_S1.);
#635 = B_SPLINE_CURVE_WITH_KNOTS('',4,(#636,#637,#638,#639,#640),
  .UNSPECIFIED.,.F.,.F.,(5,5),(0.,1.),.PIECEWISE_BEZIER_KNOTS.);
#636 = CARTESIAN_POINT('',(-36.49723945377,178.662985938,125.0006));
#637 = CARTESIAN_POINT('',(-36.49723945377,178.662985938,62.5003));
#638 = CARTESIAN_POINT('',(-36.49723945377,178.662985938,
    3.552713678801E-12));
#639 = CARTESIAN_POINT('',(-36.49723945377,178.662985938,-62.5003));
#640 = CARTESIAN_POINT('',(-36.49723945377,178.662985938,-125.0006));
#641 = PCURVE('',#45,#642);
#642 = DEFINITIONAL_REPRESENTATION('',(#643),#649);
#643 = B_SPLINE_CURVE_WITH_KNOTS('',4,(#644,#645,#646,#647,#648),
  .UNSPECIFIED.,.F.,.F.,(5,5),(2.399988480022E-06,0.999997600012),
  .PIECEWISE_BEZIER_KNOTS.);
#644 = CARTESIAN_POINT('',(1.6927559075,-250.));
#645 = CARTESIAN_POINT('',(1.6927559075,-187.5));
#646 = CARTESIAN_POINT('',(1.6927559075,-125.));
#647 = CARTESIAN_POINT('',(1.6927559075,-62.5));
#648 = CARTESIAN_POINT('',(1.6927559075,4.341861072066E-14));
#649 = ( GEOMETRIC_REPRESENTATION_CONTEXT(2) 
PARAMETRIC_REPRESENTATION_CONTEXT() REPRESENTATION_CONTEXT('2D SPACE',''
  ) );
#650 = PCURVE('',#615,#651);
#651 = DEFINITIONAL_REPRESENTATION('',(#652),#658);
#652 = B_SPLINE_CURVE_WITH_KNOTS('',4,(#653,#654,#655,#656,#657),
  .UNSPECIFIED.,.F.,.F.,(5,5),(0.,1.),.PIECEWISE_BEZIER_KNOTS.);
#653 = CARTESIAN_POINT('',(14.171267577338,-260.0006));
#654 = CARTESIAN_POINT('',(14.171267577338,-197.5003));
#655 = CARTESIAN_POINT('',(14.171267577338,-135.));
#656 = CARTESIAN_POINT('',(14.171267577338,-72.4997));
#657 = CARTESIAN_POINT('',(14.171267577338,-9.9994));
#658 = ( GEOMETRIC_REPRESENTATION_CONTEXT(2) 
PARAMETRIC_REPRESENTATION_CONTEXT() REPRESENTATION_CONTEXT('2D SPACE',''
  ) );
#659 = ORIENTED_EDGE('',*,*,#660,.T.);
#660 = EDGE_CURVE('',#632,#661,#663,.T.);
#661 = VERTEX_POINT('',#662);
#662 = CARTESIAN_POINT('',(-106.725022774,168.224602912,125.));
#663 = SURFACE_CURVE('',#664,(#669,#675),.PCURVE_S1.);
#664 = ELLIPSE('',#665,300.,180.);
#665 = AXIS2_PLACEMENT_3D('',#666,#667,#668);
#666 = CARTESIAN_POINT('',(0.,0.,125.));
#667 = DIRECTION('',(0.,0.,1.));
#668 = DIRECTION('',(1.,0.,-0.));
#669 = PCURVE('',#45,#670);
#670 = DEFINITIONAL_REPRESENTATION('',(#671),#674);
#671 = B_SPLINE_CURVE_WITH_KNOTS('',1,(#672,#673),.UNSPECIFIED.,.F.,.F.,
  (2,2),(1.6927559075,1.934512851372),.PIECEWISE_BEZIER_KNOTS.);
#672 = CARTESIAN_POINT('',(1.6927559075,-250.));
#673 = CARTESIAN_POINT('',(1.934512851372,-250.));
#674 = ( GEOMETRIC_REPRESENTATION_CONTEXT(2) 
PARAMETRIC_REPRESENTATION_CONTEXT() REPRESENTATION_CONTEXT('2D SPACE',''
  ) );
#675 = PCURVE('',#676,#681);
#676 = PLANE('',#677);
#677 = AXIS2_PLACEMENT_3D('',#678,#679,#680);
#678 = CARTESIAN_POINT('',(19.51363749079,-2.815182565418E-15,125.));
#679 = DIRECTION('',(0.,0.,1.));
#680 = DIRECTION('',(1.,0.,-0.));
#681 = DEFINITIONAL_REPRESENTATION('',(#682),#686);
#682 = ELLIPSE('',#683,300.,180.);
#683 = AXIS2_PLACEMENT_2D('',#684,#685);
#684 = CARTESIAN_POINT('',(-19.51363749079,2.815182565418E-15));
#685 = DIRECTION('',(1.,0.));
#686 = ( GEOMETRIC_REPRESENTATION_CONTEXT(2) 
PARAMETRIC_REPRESENTATION_CONTEXT() REPRESENTATION_CONTEXT('2D SPACE',''
  ) );
#687 = ORIENTED_EDGE('',*,*,#688,.F.);
#688 = EDGE_CURVE('',#24,#661,#689,.T.);
#689 = SURFACE_CURVE('',#690,(#699,#711),.PCURVE_S1.);
#690 = B_SPLINE_CURVE_WITH_KNOTS('',4,(#691,#692,#693,#694,#695,#696,
    #697,#698),.UNSPECIFIED.,.F.,.F.,(5,3,5),(0.,0.834115393088,1.),
  .UNSPECIFIED.);
#691 = CARTESIAN_POINT('',(-106.725022774,168.224602912,-125.0006));
#692 = CARTESIAN_POINT('',(-106.725022774,168.224602912,-72.86813769806)
  );
#693 = CARTESIAN_POINT('',(-106.725022774,168.224602912,-20.73567539395)
  );
#694 = CARTESIAN_POINT('',(-106.725022774,168.224602912,31.39678690679)
  );
#695 = CARTESIAN_POINT('',(-106.725022774,168.224602912,93.89708690596)
  );
#696 = CARTESIAN_POINT('',(-106.725022774,168.224602912,104.2649246));
#697 = CARTESIAN_POINT('',(-106.725022774,168.224602912,114.632762303));
#698 = CARTESIAN_POINT('',(-106.725022774,168.224602912,125.0006));
#699 = PCURVE('',#45,#700);
#700 = DEFINITIONAL_REPRESENTATION('',(#701),#710);
#701 = B_SPLINE_CURVE_WITH_KNOTS('',4,(#702,#703,#704,#705,#706,#707,
    #708,#709),.UNSPECIFIED.,.F.,.F.,(5,3,5),(2.399988480044E-06,
    0.834115393088,0.999997600012),.UNSPECIFIED.);
#702 = CARTESIAN_POINT('',(1.934512851372,2.669002172051E-14));
#703 = CARTESIAN_POINT('',(1.934512851372,-52.13231230194));
#704 = CARTESIAN_POINT('',(1.934512851372,-104.264624606));
#705 = CARTESIAN_POINT('',(1.934512851372,-156.396936907));
#706 = CARTESIAN_POINT('',(1.934512851372,-218.896936906));
#707 = CARTESIAN_POINT('',(1.934512851372,-229.2646246));
#708 = CARTESIAN_POINT('',(1.934512851372,-239.632312303));
#709 = CARTESIAN_POINT('',(1.934512851372,-250.));
#710 = ( GEOMETRIC_REPRESENTATION_CONTEXT(2) 
PARAMETRIC_REPRESENTATION_CONTEXT() REPRESENTATION_CONTEXT('2D SPACE',''
  ) );
#711 = PCURVE('',#76,#712);
#712 = DEFINITIONAL_REPRESENTATION('',(#713),#722);
#713 = B_SPLINE_CURVE_WITH_KNOTS('',4,(#714,#715,#716,#717,#718,#719,
    #720,#721),.UNSPECIFIED.,.F.,.F.,(5,3,5),(2.399988480045E-06,
    0.834115393088,0.999997600012),.UNSPECIFIED.);
#714 = CARTESIAN_POINT('',(3.085901007621,-2.884832411603E-09));
#715 = CARTESIAN_POINT('',(3.085901007621,-52.13231230483));
#716 = CARTESIAN_POINT('',(3.085901007621,-104.264624602));
#717 = CARTESIAN_POINT('',(3.085901007621,-156.396936907));
#718 = CARTESIAN_POINT('',(3.085901007621,-218.896936906));
#719 = CARTESIAN_POINT('',(3.085901007621,-229.264624609));
#720 = CARTESIAN_POINT('',(3.085901007621,-239.632312296));
#721 = CARTESIAN_POINT('',(3.085901007621,-249.999999993));
#722 = ( GEOMETRIC_REPRESENTATION_CONTEXT(2) 
PARAMETRIC_REPRESENTATION_CONTEXT() REPRESENTATION_CONTEXT('2D SPACE',''
  ) );
#723 = ADVANCED_FACE('',(#724),#615,.T.);
#724 = FACE_BOUND('',#725,.T.);
#725 = EDGE_LOOP('',(#726,#749,#750,#751));
#726 = ORIENTED_EDGE('',*,*,#727,.F.);
#727 = EDGE_CURVE('',#574,#728,#730,.T.);
#728 = VERTEX_POINT('',#729);
#729 = CARTESIAN_POINT('',(0.,130.,125.));
#730 = SURFACE_CURVE('',#731,(#735,#742),.PCURVE_S1.);
#731 = LINE('',#732,#733);
#732 = CARTESIAN_POINT('',(0.,130.,-135.));
#733 = VECTOR('',#734,1.);
#734 = DIRECTION('',(0.,0.,1.));
#735 = PCURVE('',#615,#736);
#736 = DEFINITIONAL_REPRESENTATION('',(#737),#741);
#737 = LINE('',#738,#739);
#738 = CARTESIAN_POINT('',(75.,0.));
#739 = VECTOR('',#740,1.);
#740 = DIRECTION('',(0.,-1.));
#741 = ( GEOMETRIC_REPRESENTATION_CONTEXT(2) 
PARAMETRIC_REPRESENTATION_CONTEXT() REPRESENTATION_CONTEXT('2D SPACE',''
  ) );
#742 = PCURVE('',#589,#743);
#743 = DEFINITIONAL_REPRESENTATION('',(#744),#748);
#744 = LINE('',#745,#746);
#745 = CARTESIAN_POINT('',(0.,0.));
#746 = VECTOR('',#747,1.);
#747 = DIRECTION('',(0.,-1.));
#748 = ( GEOMETRIC_REPRESENTATION_CONTEXT(2) 
PARAMETRIC_REPRESENTATION_CONTEXT() REPRESENTATION_CONTEXT('2D SPACE',''
  ) );
#749 = ORIENTED_EDGE('',*,*,#601,.T.);
#750 = ORIENTED_EDGE('',*,*,#631,.F.);
#751 = ORIENTED_EDGE('',*,*,#752,.F.);
#752 = EDGE_CURVE('',#728,#632,#753,.T.);
#753 = SURFACE_CURVE('',#754,(#758,#765),.PCURVE_S1.);
#754 = LINE('',#755,#756);
#755 = CARTESIAN_POINT('',(12.21245474834,113.716727002,125.));
#756 = VECTOR('',#757,1.);
#757 = DIRECTION('',(-0.6,0.8,0.));
#758 = PCURVE('',#615,#759);
#759 = DEFINITIONAL_REPRESENTATION('',(#760),#764);
#760 = LINE('',#761,#762);
#761 = CARTESIAN_POINT('',(95.354091247404,-260.));
#762 = VECTOR('',#763,1.);
#763 = DIRECTION('',(-1.,-0.));
#764 = ( GEOMETRIC_REPRESENTATION_CONTEXT(2) 
PARAMETRIC_REPRESENTATION_CONTEXT() REPRESENTATION_CONTEXT('2D SPACE',''
  ) );
#765 = PCURVE('',#676,#766);
#766 = DEFINITIONAL_REPRESENTATION('',(#767),#771);
#767 = LINE('',#768,#769);
#768 = CARTESIAN_POINT('',(-7.30118274245,113.716727002));
#769 = VECTOR('',#770,1.);
#770 = DIRECTION('',(-0.6,0.8));
#771 = ( GEOMETRIC_REPRESENTATION_CONTEXT(2) 
PARAMETRIC_REPRESENTATION_CONTEXT() REPRESENTATION_CONTEXT('2D SPACE',''
  ) );
#772 = ADVANCED_FACE('',(#773),#589,.T.);
#773 = FACE_BOUND('',#774,.T.);
#774 = EDGE_LOOP('',(#775,#776,#777,#800));
#775 = ORIENTED_EDGE('',*,*,#573,.T.);
#776 = ORIENTED_EDGE('',*,*,#727,.T.);
#777 = ORIENTED_EDGE('',*,*,#778,.F.);
#778 = EDGE_CURVE('',#779,#728,#781,.T.);
#779 = VERTEX_POINT('',#780);
#780 = CARTESIAN_POINT('',(36.49723945377,178.662985938,125.));
#781 = SURFACE_CURVE('',#782,(#786,#793),.PCURVE_S1.);
#782 = LINE('',#783,#784);
#783 = CARTESIAN_POINT('',(-27.68754525166,93.08327299779,125.));
#784 = VECTOR('',#785,1.);
#785 = DIRECTION('',(-0.6,-0.8,0.));
#786 = PCURVE('',#589,#787);
#787 = DEFINITIONAL_REPRESENTATION('',(#788),#792);
#788 = LINE('',#789,#790);
#789 = CARTESIAN_POINT('',(-46.14590875276,-260.));
#790 = VECTOR('',#791,1.);
#791 = DIRECTION('',(-1.,-0.));
#792 = ( GEOMETRIC_REPRESENTATION_CONTEXT(2) 
PARAMETRIC_REPRESENTATION_CONTEXT() REPRESENTATION_CONTEXT('2D SPACE',''
  ) );
#793 = PCURVE('',#676,#794);
#794 = DEFINITIONAL_REPRESENTATION('',(#795),#799);
#795 = LINE('',#796,#797);
#796 = CARTESIAN_POINT('',(-47.20118274245,93.08327299779));
#797 = VECTOR('',#798,1.);
#798 = DIRECTION('',(-0.6,-0.8));
#799 = ( GEOMETRIC_REPRESENTATION_CONTEXT(2) 
PARAMETRIC_REPRESENTATION_CONTEXT() REPRESENTATION_CONTEXT('2D SPACE',''
  ) );
#800 = ORIENTED_EDGE('',*,*,#801,.T.);
#801 = EDGE_CURVE('',#779,#543,#802,.T.);
#802 = SURFACE_CURVE('',#803,(#809,#818),.PCURVE_S1.);
#803 = B_SPLINE_CURVE_WITH_KNOTS('',4,(#804,#805,#806,#807,#808),
  .UNSPECIFIED.,.F.,.F.,(5,5),(0.,1.),.PIECEWISE_BEZIER_KNOTS.);
#804 = CARTESIAN_POINT('',(36.49723945377,178.662985938,125.0006));
#805 = CARTESIAN_POINT('',(36.49723945377,178.662985938,62.5003));
#806 = CARTESIAN_POINT('',(36.49723945377,178.662985938,
    3.552713678801E-12));
#807 = CARTESIAN_POINT('',(36.49723945377,178.662985938,-62.5003));
#808 = CARTESIAN_POINT('',(36.49723945377,178.662985938,-125.0006));
#809 = PCURVE('',#589,#810);
#810 = DEFINITIONAL_REPRESENTATION('',(#811),#817);
#811 = B_SPLINE_CURVE_WITH_KNOTS('',4,(#812,#813,#814,#815,#816),
  .UNSPECIFIED.,.F.,.F.,(5,5),(0.,1.),.PIECEWISE_BEZIER_KNOTS.);
#812 = CARTESIAN_POINT('',(60.828732422662,-260.0006));
#813 = CARTESIAN_POINT('',(60.828732422662,-197.5003));
#814 = CARTESIAN_POINT('',(60.828732422662,-135.));
#815 = CARTESIAN_POINT('',(60.828732422662,-72.4997));
#816 = CARTESIAN_POINT('',(60.828732422662,-9.9994));
#817 = ( GEOMETRIC_REPRESENTATION_CONTEXT(2) 
PARAMETRIC_REPRESENTATION_CONTEXT() REPRESENTATION_CONTEXT('2D SPACE',''
  ) );
#818 = PCURVE('',#559,#819);
#819 = DEFINITIONAL_REPRESENTATION('',(#820),#826);
#820 = B_SPLINE_CURVE_WITH_KNOTS('',4,(#821,#822,#823,#824,#825),
  .UNSPECIFIED.,.F.,.F.,(5,5),(2.399988480022E-06,0.999997600012),
  .PIECEWISE_BEZIER_KNOTS.);
#821 = CARTESIAN_POINT('',(1.44883674609,-250.));
#822 = CARTESIAN_POINT('',(1.44883674609,-187.5));
#823 = CARTESIAN_POINT('',(1.44883674609,-125.));
#824 = CARTESIAN_POINT('',(1.44883674609,-62.5));
#825 = CARTESIAN_POINT('',(1.44883674609,4.341861072066E-14));
#826 = ( GEOMETRIC_REPRESENTATION_CONTEXT(2) 
PARAMETRIC_REPRESENTATION_CONTEXT() REPRESENTATION_CONTEXT('2D SPACE',''
  ) );
#827 = ADVANCED_FACE('',(#828),#559,.F.);
#828 = FACE_BOUND('',#829,.F.);
#829 = EDGE_LOOP('',(#830,#831,#869,#890));
#830 = ORIENTED_EDGE('',*,*,#542,.F.);
#831 = ORIENTED_EDGE('',*,*,#832,.F.);
#832 = EDGE_CURVE('',#833,#520,#835,.T.);
#833 = VERTEX_POINT('',#834);
#834 = CARTESIAN_POINT('',(92.32144010421,171.264796765,125.));
#835 = SURFACE_CURVE('',#836,(#845,#857),.PCURVE_S1.);
#836 = B_SPLINE_CURVE_WITH_KNOTS('',4,(#837,#838,#839,#840,#841,#842,
    #843,#844),.UNSPECIFIED.,.F.,.F.,(5,3,5),(0.,0.830958545495,1.),
  .UNSPECIFIED.);
#837 = CARTESIAN_POINT('',(92.32144010421,171.264796765,125.0006));
#838 = CARTESIAN_POINT('',(92.32144010421,171.264796765,73.0654416197));
#839 = CARTESIAN_POINT('',(92.32144010421,171.264796765,21.13028323642)
  );
#840 = CARTESIAN_POINT('',(92.32144010421,171.264796765,-30.80487514223)
  );
#841 = CARTESIAN_POINT('',(92.32144010421,171.264796765,-93.3051751414)
  );
#842 = CARTESIAN_POINT('',(92.32144010421,171.264796765,-103.870316758)
  );
#843 = CARTESIAN_POINT('',(92.32144010421,171.264796765,-114.435458381)
  );
#844 = CARTESIAN_POINT('',(92.32144010421,171.264796765,-125.0006));
#845 = PCURVE('',#559,#846);
#846 = DEFINITIONAL_REPRESENTATION('',(#847),#856);
#847 = B_SPLINE_CURVE_WITH_KNOTS('',4,(#848,#849,#850,#851,#852,#853,
    #854,#855),.UNSPECIFIED.,.F.,.F.,(5,3,5),(2.399988480019E-06,
    0.830958545495,0.999997600012),.UNSPECIFIED.);
#848 = CARTESIAN_POINT('',(1.257981441928,-250.));
#849 = CARTESIAN_POINT('',(1.257981441928,-198.06499162));
#850 = CARTESIAN_POINT('',(1.257981441928,-146.129983236));
#851 = CARTESIAN_POINT('',(1.257981441928,-94.19497485777));
#852 = CARTESIAN_POINT('',(1.257981441928,-31.6949748586));
#853 = CARTESIAN_POINT('',(1.257981441928,-21.12998324221));
#854 = CARTESIAN_POINT('',(1.257981441928,-10.56499161886));
#855 = CARTESIAN_POINT('',(1.257981441928,5.129764343338E-14));
#856 = ( GEOMETRIC_REPRESENTATION_CONTEXT(2) 
PARAMETRIC_REPRESENTATION_CONTEXT() REPRESENTATION_CONTEXT('2D SPACE',''
  ) );
#857 = PCURVE('',#505,#858);
#858 = DEFINITIONAL_REPRESENTATION('',(#859),#868);
#859 = B_SPLINE_CURVE_WITH_KNOTS('',4,(#860,#861,#862,#863,#864,#865,
    #866,#867),.UNSPECIFIED.,.F.,.F.,(5,3,5),(2.399988480267E-06,
    0.830958545495,0.999997600012),.UNSPECIFIED.);
#860 = CARTESIAN_POINT('',(6.407700945017,-249.999999996));
#861 = CARTESIAN_POINT('',(6.407700945017,-198.064991616));
#862 = CARTESIAN_POINT('',(6.407700945017,-146.129983241));
#863 = CARTESIAN_POINT('',(6.407700945017,-94.19497485777));
#864 = CARTESIAN_POINT('',(6.407700945017,-31.6949748586));
#865 = CARTESIAN_POINT('',(6.407700945017,-21.12998323481));
#866 = CARTESIAN_POINT('',(6.407700945017,-10.5649916249));
#867 = CARTESIAN_POINT('',(6.407700945017,-6.036369918669E-09));
#868 = ( GEOMETRIC_REPRESENTATION_CONTEXT(2) 
PARAMETRIC_REPRESENTATION_CONTEXT() REPRESENTATION_CONTEXT('2D SPACE',''
  ) );
#869 = ORIENTED_EDGE('',*,*,#870,.T.);
#870 = EDGE_CURVE('',#833,#779,#871,.T.);
#871 = SURFACE_CURVE('',#872,(#877,#883),.PCURVE_S1.);
#872 = ELLIPSE('',#873,300.,180.);
#873 = AXIS2_PLACEMENT_3D('',#874,#875,#876);
#874 = CARTESIAN_POINT('',(0.,0.,125.));
#875 = DIRECTION('',(0.,0.,1.));
#876 = DIRECTION('',(1.,0.,-0.));
#877 = PCURVE('',#559,#878);
#878 = DEFINITIONAL_REPRESENTATION('',(#879),#882);
#879 = B_SPLINE_CURVE_WITH_KNOTS('',1,(#880,#881),.UNSPECIFIED.,.F.,.F.,
  (2,2),(1.257981441928,1.44883674609),.PIECEWISE_BEZIER_KNOTS.);
#880 = CARTESIAN_POINT('',(1.257981441928,-250.));
#881 = CARTESIAN_POINT('',(1.44883674609,-250.));
#882 = ( GEOMETRIC_REPRESENTATION_CONTEXT(2) 
PARAMETRIC_REPRESENTATION_CONTEXT() REPRESENTATION_CONTEXT('2D SPACE',''
  ) );
#883 = PCURVE('',#676,#884);
#884 = DEFINITIONAL_REPRESENTATION('',(#885),#889);
#885 = ELLIPSE('',#886,300.,180.);
#886 = AXIS2_PLACEMENT_2D('',#887,#888);
#887 = CARTESIAN_POINT('',(-19.51363749079,2.815182565418E-15));
#888 = DIRECTION('',(1.,0.));
#889 = ( GEOMETRIC_REPRESENTATION_CONTEXT(2) 
PARAMETRIC_REPRESENTATION_CONTEXT() REPRESENTATION_CONTEXT('2D SPACE',''
  ) );
#890 = ORIENTED_EDGE('',*,*,#801,.T.);
#891 = ADVANCED_FACE('',(#892),#451,.F.);
#892 = FACE_BOUND('',#893,.F.);
#893 = EDGE_LOOP('',(#894,#895,#896,#925,#948,#971));
#894 = ORIENTED_EDGE('',*,*,#465,.F.);
#895 = ORIENTED_EDGE('',*,*,#434,.F.);
#896 = ORIENTED_EDGE('',*,*,#897,.F.);
#897 = EDGE_CURVE('',#898,#351,#900,.T.);
#898 = VERTEX_POINT('',#899);
#899 = CARTESIAN_POINT('',(191.524918109,-138.544411896,125.));
#900 = SURFACE_CURVE('',#901,(#907,#916),.PCURVE_S1.);
#901 = B_SPLINE_CURVE_WITH_KNOTS('',4,(#902,#903,#904,#905,#906),
  .UNSPECIFIED.,.F.,.F.,(5,5),(0.,1.),.PIECEWISE_BEZIER_KNOTS.);
#902 = CARTESIAN_POINT('',(191.524918109,-138.544411896,125.0006));
#903 = CARTESIAN_POINT('',(191.524918109,-138.544411896,62.58832833105)
  );
#904 = CARTESIAN_POINT('',(191.524918109,-138.544411896,0.357081589728)
  );
#905 = CARTESIAN_POINT('',(191.524918109,-138.544411896,-60.33005623461)
  );
#906 = CARTESIAN_POINT('',(191.524918109,-138.544411896,-125.0006));
#907 = PCURVE('',#451,#908);
#908 = DEFINITIONAL_REPRESENTATION('',(#909),#915);
#909 = B_SPLINE_CURVE_WITH_KNOTS('',4,(#910,#911,#912,#913,#914),
  .UNSPECIFIED.,.F.,.F.,(5,5),(2.403373528448E-06,0.999997680551),
  .PIECEWISE_BEZIER_KNOTS.);
#910 = CARTESIAN_POINT('',(5.404828029234,-250.));
#911 = CARTESIAN_POINT('',(5.404828029234,-187.588024398));
#912 = CARTESIAN_POINT('',(5.404828029234,-125.3570785663));
#913 = CARTESIAN_POINT('',(5.404828029234,-64.67021062018));
#914 = CARTESIAN_POINT('',(5.404828029234,5.532301504928E-14));
#915 = ( GEOMETRIC_REPRESENTATION_CONTEXT(2) 
PARAMETRIC_REPRESENTATION_CONTEXT() REPRESENTATION_CONTEXT('2D SPACE',''
  ) );
#916 = PCURVE('',#406,#917);
#917 = DEFINITIONAL_REPRESENTATION('',(#918),#924);
#918 = B_SPLINE_CURVE_WITH_KNOTS('',4,(#919,#920,#921,#922,#923),
  .UNSPECIFIED.,.F.,.F.,(5,5),(2.403373528211E-06,0.999997680551),
  .PIECEWISE_BEZIER_KNOTS.);
#919 = CARTESIAN_POINT('',(6.20997233865E-02,-259.99999999));
#920 = CARTESIAN_POINT('',(6.20997233865E-02,-197.5880243883));
#921 = CARTESIAN_POINT('',(6.20997233865E-02,-135.3570785786));
#922 = CARTESIAN_POINT('',(6.20997233865E-02,-74.67021062024));
#923 = CARTESIAN_POINT('',(6.20997233865E-02,-10.00000000006));
#924 = ( GEOMETRIC_REPRESENTATION_CONTEXT(2) 
PARAMETRIC_REPRESENTATION_CONTEXT() REPRESENTATION_CONTEXT('2D SPACE',''
  ) );
#925 = ORIENTED_EDGE('',*,*,#926,.T.);
#926 = EDGE_CURVE('',#898,#927,#929,.T.);
#927 = VERTEX_POINT('',#928);
#928 = CARTESIAN_POINT('',(300.,0.,125.));
#929 = SURFACE_CURVE('',#930,(#935,#941),.PCURVE_S1.);
#930 = ELLIPSE('',#931,300.,180.);
#931 = AXIS2_PLACEMENT_3D('',#932,#933,#934);
#932 = CARTESIAN_POINT('',(0.,0.,125.));
#933 = DIRECTION('',(0.,0.,1.));
#934 = DIRECTION('',(1.,0.,-0.));
#935 = PCURVE('',#451,#936);
#936 = DEFINITIONAL_REPRESENTATION('',(#937),#940);
#937 = B_SPLINE_CURVE_WITH_KNOTS('',1,(#938,#939),.UNSPECIFIED.,.F.,.F.,
  (2,2),(5.404828029234,6.28318530718),.PIECEWISE_BEZIER_KNOTS.);
#938 = CARTESIAN_POINT('',(5.404828029234,-250.));
#939 = CARTESIAN_POINT('',(6.28318530718,-250.));
#940 = ( GEOMETRIC_REPRESENTATION_CONTEXT(2) 
PARAMETRIC_REPRESENTATION_CONTEXT() REPRESENTATION_CONTEXT('2D SPACE',''
  ) );
#941 = PCURVE('',#676,#942);
#942 = DEFINITIONAL_REPRESENTATION('',(#943),#947);
#943 = ELLIPSE('',#944,300.,180.);
#944 = AXIS2_PLACEMENT_2D('',#945,#946);
#945 = CARTESIAN_POINT('',(-19.51363749079,2.815182565418E-15));
#946 = DIRECTION('',(1.,0.));
#947 = ( GEOMETRIC_REPRESENTATION_CONTEXT(2) 
PARAMETRIC_REPRESENTATION_CONTEXT() REPRESENTATION_CONTEXT('2D SPACE',''
  ) );
#948 = ORIENTED_EDGE('',*,*,#949,.T.);
#949 = EDGE_CURVE('',#927,#950,#952,.T.);
#950 = VERTEX_POINT('',#951);
#951 = CARTESIAN_POINT('',(204.472050506,131.714938417,125.));
#952 = SURFACE_CURVE('',#953,(#958,#964),.PCURVE_S1.);
#953 = ELLIPSE('',#954,300.,180.);
#954 = AXIS2_PLACEMENT_3D('',#955,#956,#957);
#955 = CARTESIAN_POINT('',(0.,0.,125.));
#956 = DIRECTION('',(0.,0.,1.));
#957 = DIRECTION('',(1.,0.,-0.));
#958 = PCURVE('',#451,#959);
#959 = DEFINITIONAL_REPRESENTATION('',(#960),#963);
#960 = B_SPLINE_CURVE_WITH_KNOTS('',1,(#961,#962),.UNSPECIFIED.,.F.,.F.,
  (2,2),(0.,0.820885511732),.PIECEWISE_BEZIER_KNOTS.);
#961 = CARTESIAN_POINT('',(6.28318530718,-250.));
#962 = CARTESIAN_POINT('',(7.104070818911,-250.));
#963 = ( GEOMETRIC_REPRESENTATION_CONTEXT(2) 
PARAMETRIC_REPRESENTATION_CONTEXT() REPRESENTATION_CONTEXT('2D SPACE',''
  ) );
#964 = PCURVE('',#676,#965);
#965 = DEFINITIONAL_REPRESENTATION('',(#966),#970);
#966 = ELLIPSE('',#967,300.,180.);
#967 = AXIS2_PLACEMENT_2D('',#968,#969);
#968 = CARTESIAN_POINT('',(-19.51363749079,2.815182565418E-15));
#969 = DIRECTION('',(1.,0.));
#970 = ( GEOMETRIC_REPRESENTATION_CONTEXT(2) 
PARAMETRIC_REPRESENTATION_CONTEXT() REPRESENTATION_CONTEXT('2D SPACE',''
  ) );
#971 = ORIENTED_EDGE('',*,*,#972,.F.);
#972 = EDGE_CURVE('',#466,#950,#973,.T.);
#973 = SURFACE_CURVE('',#974,(#980,#989),.PCURVE_S1.);
#974 = B_SPLINE_CURVE_WITH_KNOTS('',4,(#975,#976,#977,#978,#979),
  .UNSPECIFIED.,.F.,.F.,(5,5),(0.,1.),.PIECEWISE_BEZIER_KNOTS.);
#975 = CARTESIAN_POINT('',(204.472050506,131.714938417,-125.0006));
#976 = CARTESIAN_POINT('',(204.472050506,131.714938417,-62.50030000083)
  );
#977 = CARTESIAN_POINT('',(204.472050506,131.714938417,
    4.355404925604E-09));
#978 = CARTESIAN_POINT('',(204.472050506,131.714938417,62.50030000083));
#979 = CARTESIAN_POINT('',(204.472050506,131.714938417,125.0006));
#980 = PCURVE('',#451,#981);
#981 = DEFINITIONAL_REPRESENTATION('',(#982),#988);
#982 = B_SPLINE_CURVE_WITH_KNOTS('',4,(#983,#984,#985,#986,#987),
  .UNSPECIFIED.,.F.,.F.,(5,5),(2.399988480045E-06,0.999997600012),
  .PIECEWISE_BEZIER_KNOTS.);
#983 = CARTESIAN_POINT('',(7.104070818911,2.361437859694E-14));
#984 = CARTESIAN_POINT('',(7.104070818911,-62.49999999917));
#985 = CARTESIAN_POINT('',(7.104070818911,-125.000000004));
#986 = CARTESIAN_POINT('',(7.104070818911,-187.500000001));
#987 = CARTESIAN_POINT('',(7.104070818911,-250.));
#988 = ( GEOMETRIC_REPRESENTATION_CONTEXT(2) 
PARAMETRIC_REPRESENTATION_CONTEXT() REPRESENTATION_CONTEXT('2D SPACE',''
  ) );
#989 = PCURVE('',#505,#990);
#990 = DEFINITIONAL_REPRESENTATION('',(#991),#997);
#991 = B_SPLINE_CURVE_WITH_KNOTS('',4,(#992,#993,#994,#995,#996),
  .UNSPECIFIED.,.F.,.F.,(5,5),(2.399988480045E-06,0.999997600012),
  .PIECEWISE_BEZIER_KNOTS.);
#992 = CARTESIAN_POINT('',(2.998014320112,-8.734989098211E-09));
#993 = CARTESIAN_POINT('',(2.998014320112,-62.5000000079));
#994 = CARTESIAN_POINT('',(2.998014320112,-124.999999995));
#995 = CARTESIAN_POINT('',(2.998014320112,-187.5));
#996 = CARTESIAN_POINT('',(2.998014320112,-249.999999999));
#997 = ( GEOMETRIC_REPRESENTATION_CONTEXT(2) 
PARAMETRIC_REPRESENTATION_CONTEXT() REPRESENTATION_CONTEXT('2D SPACE',''
  ) );
#998 = ADVANCED_FACE('',(#999),#406,.T.);
#999 = FACE_BOUND('',#1000,.T.);
#1000 = EDGE_LOOP('',(#1001,#1033,#1034,#1035));
#1001 = ORIENTED_EDGE('',*,*,#1002,.F.);
#1002 = EDGE_CURVE('',#320,#1003,#1005,.T.);
#1003 = VERTEX_POINT('',#1004);
#1004 = CARTESIAN_POINT('',(106.725022774,-168.224602912,125.));
#1005 = SURFACE_CURVE('',#1006,(#1013,#1023),.PCURVE_S1.);
#1006 = B_SPLINE_CURVE_WITH_KNOTS('',5,(#1007,#1008,#1009,#1010,#1011,
    #1012),.UNSPECIFIED.,.F.,.F.,(6,6),(0.,1.),
  .PIECEWISE_BEZIER_KNOTS.);
#1007 = CARTESIAN_POINT('',(106.725022774,-168.224602912,-125.0006));
#1008 = CARTESIAN_POINT('',(106.725022774,-168.224602912,-75.81036513042
    ));
#1009 = CARTESIAN_POINT('',(106.725022774,-168.224602912,-24.25350807475
    ));
#1010 = CARTESIAN_POINT('',(106.725022774,-168.224602912,25.87518246264)
  );
#1011 = CARTESIAN_POINT('',(106.725022774,-168.224602912,74.44945437677)
  );
#1012 = CARTESIAN_POINT('',(106.725022774,-168.224602912,125.0006));
#1013 = PCURVE('',#406,#1014);
#1014 = DEFINITIONAL_REPRESENTATION('',(#1015),#1022);
#1015 = B_SPLINE_CURVE_WITH_KNOTS('',5,(#1016,#1017,#1018,#1019,#1020,
    #1021),.UNSPECIFIED.,.F.,.F.,(6,6),(2.439508006963E-06,
    0.999997626166),.PIECEWISE_BEZIER_KNOTS.);
#1016 = CARTESIAN_POINT('',(3.085901007621,-10.00000000006));
#1017 = CARTESIAN_POINT('',(3.085901007621,-59.19002119355));
#1018 = CARTESIAN_POINT('',(3.085901007621,-110.7466140042));
#1019 = CARTESIAN_POINT('',(3.085901007621,-160.8750624911));
#1020 = CARTESIAN_POINT('',(3.085901007621,-209.4491164578));
#1021 = CARTESIAN_POINT('',(3.085901007621,-259.99999999));
#1022 = ( GEOMETRIC_REPRESENTATION_CONTEXT(2) 
PARAMETRIC_REPRESENTATION_CONTEXT() REPRESENTATION_CONTEXT('2D SPACE',''
  ) );
#1023 = PCURVE('',#336,#1024);
#1024 = DEFINITIONAL_REPRESENTATION('',(#1025),#1032);
#1025 = B_SPLINE_CURVE_WITH_KNOTS('',5,(#1026,#1027,#1028,#1029,#1030,
    #1031),.UNSPECIFIED.,.F.,.F.,(6,6),(2.439508006963E-06,
    0.999997626166),.PIECEWISE_BEZIER_KNOTS.);
#1026 = CARTESIAN_POINT('',(5.076105504962,3.866858547773E-14));
#1027 = CARTESIAN_POINT('',(5.076105504962,-49.19002119349));
#1028 = CARTESIAN_POINT('',(5.076105504962,-100.7466140182));
#1029 = CARTESIAN_POINT('',(5.076105504962,-150.8750624661));
#1030 = CARTESIAN_POINT('',(5.076105504962,-199.4491164678));
#1031 = CARTESIAN_POINT('',(5.076105504962,-250.));
#1032 = ( GEOMETRIC_REPRESENTATION_CONTEXT(2) 
PARAMETRIC_REPRESENTATION_CONTEXT() REPRESENTATION_CONTEXT('2D SPACE',''
  ) );
#1033 = ORIENTED_EDGE('',*,*,#350,.T.);
#1034 = ORIENTED_EDGE('',*,*,#897,.F.);
#1035 = ORIENTED_EDGE('',*,*,#1036,.F.);
#1036 = EDGE_CURVE('',#1003,#898,#1037,.T.);
#1037 = SURFACE_CURVE('',#1038,(#1062,#1082),.PCURVE_S1.);
#1038 = B_SPLINE_CURVE_WITH_KNOTS('',8,(#1039,#1040,#1041,#1042,#1043,
    #1044,#1045,#1046,#1047,#1048,#1049,#1050,#1051,#1052,#1053,#1054,
    #1055,#1056,#1057,#1058,#1059,#1060,#1061),.UNSPECIFIED.,.F.,.F.,(9,
    7,7,9),(0.,2.965646709415E-02,0.502581604397,1.),.UNSPECIFIED.);
#1039 = CARTESIAN_POINT('',(111.096884781,-178.501991329,125.));
#1040 = CARTESIAN_POINT('',(110.817288271,-178.021073493,125.));
#1041 = CARTESIAN_POINT('',(110.544902278,-177.53692128,125.));
#1042 = CARTESIAN_POINT('',(110.277894125,-177.046382489,125.));
#1043 = CARTESIAN_POINT('',(110.020279252,-176.556368803,125.));
#1044 = CARTESIAN_POINT('',(109.767140111,-176.058432195,125.));
#1045 = CARTESIAN_POINT('',(109.52264177,-175.559751912,125.));
#1046 = CARTESIAN_POINT('',(109.284641612,-175.056663008,125.));
#1047 = CARTESIAN_POINT('',(105.374220216,-166.478647186,125.));
#1048 = CARTESIAN_POINT('',(103.513052341,-157.577613915,125.));
#1049 = CARTESIAN_POINT('',(103.688283712,-148.325514323,125.));
#1050 = CARTESIAN_POINT('',(105.967708939,-139.269518164,125.));
#1051 = CARTESIAN_POINT('',(110.239014101,-130.9651339,125.));
#1052 = CARTESIAN_POINT('',(116.219538862,-123.903591824,125.));
#1053 = CARTESIAN_POINT('',(123.496919598,-118.450879768,125.));
#1054 = CARTESIAN_POINT('',(140.105762606,-111.005166149,125.));
#1055 = CARTESIAN_POINT('',(149.524477137,-109.205810934,125.));
#1056 = CARTESIAN_POINT('',(159.289978527,-109.673916506,125.));
#1057 = CARTESIAN_POINT('',(168.760865847,-112.475477843,125.));
#1058 = CARTESIAN_POINT('',(177.291011672,-117.453737053,125.));
#1059 = CARTESIAN_POINT('',(184.32350223,-124.245512725,125.));
#1060 = CARTESIAN_POINT('',(189.466900628,-132.33843034,125.));
#1061 = CARTESIAN_POINT('',(192.521003214,-141.15486509,125.));
#1062 = PCURVE('',#406,#1063);
#1063 = DEFINITIONAL_REPRESENTATION('',(#1064),#1081);
#1064 = B_SPLINE_CURVE_WITH_KNOTS('',8,(#1065,#1066,#1067,#1068,#1069,
    #1070,#1071,#1072,#1073,#1074,#1075,#1076,#1077,#1078,#1079,#1080),
  .UNSPECIFIED.,.F.,.F.,(9,7,9),(7.461951420955E-02,0.50258160685,
    0.981377811804),.UNSPECIFIED.);
#1065 = CARTESIAN_POINT('',(3.085901007619,-260.));
#1066 = CARTESIAN_POINT('',(2.907508200065,-260.));
#1067 = CARTESIAN_POINT('',(2.729114154564,-260.));
#1068 = CARTESIAN_POINT('',(2.550722045478,-260.));
#1069 = CARTESIAN_POINT('',(2.372331500041,-260.));
#1070 = CARTESIAN_POINT('',(2.193940325838,-260.));
#1071 = CARTESIAN_POINT('',(2.015546806588,-260.));
#1072 = CARTESIAN_POINT('',(1.837151931196,-260.));
#1073 = CARTESIAN_POINT('',(1.459180303787,-260.));
#1074 = CARTESIAN_POINT('',(1.259594029645,-260.));
#1075 = CARTESIAN_POINT('',(1.060010248528,-260.));
#1076 = CARTESIAN_POINT('',(0.86043010786,-260.));
#1077 = CARTESIAN_POINT('',(0.660850365282,-260.));
#1078 = CARTESIAN_POINT('',(0.461267459564,-260.));
#1079 = CARTESIAN_POINT('',(0.261681636108,-260.));
#1080 = CARTESIAN_POINT('',(6.209972338221E-02,-260.));
#1081 = ( GEOMETRIC_REPRESENTATION_CONTEXT(2) 
PARAMETRIC_REPRESENTATION_CONTEXT() REPRESENTATION_CONTEXT('2D SPACE',''
  ) );
#1082 = PCURVE('',#676,#1083);
#1083 = DEFINITIONAL_REPRESENTATION('',(#1084),#1108);
#1084 = B_SPLINE_CURVE_WITH_KNOTS('',8,(#1085,#1086,#1087,#1088,#1089,
    #1090,#1091,#1092,#1093,#1094,#1095,#1096,#1097,#1098,#1099,#1100,
    #1101,#1102,#1103,#1104,#1105,#1106,#1107),.UNSPECIFIED.,.F.,.F.,(9,
    7,7,9),(0.,2.965646709415E-02,0.502581604397,1.),.UNSPECIFIED.);
#1085 = CARTESIAN_POINT('',(91.58324729021,-178.501991329));
#1086 = CARTESIAN_POINT('',(91.30365078021,-178.021073493));
#1087 = CARTESIAN_POINT('',(91.03126478721,-177.53692128));
#1088 = CARTESIAN_POINT('',(90.76425663421,-177.046382489));
#1089 = CARTESIAN_POINT('',(90.50664176121,-176.556368803));
#1090 = CARTESIAN_POINT('',(90.25350262021,-176.058432195));
#1091 = CARTESIAN_POINT('',(90.00900427921,-175.559751912));
#1092 = CARTESIAN_POINT('',(89.77100412121,-175.056663008));
#1093 = CARTESIAN_POINT('',(85.86058272521,-166.478647186));
#1094 = CARTESIAN_POINT('',(83.99941485021,-157.577613915));
#1095 = CARTESIAN_POINT('',(84.17464622121,-148.325514323));
#1096 = CARTESIAN_POINT('',(86.45407144821,-139.269518164));
#1097 = CARTESIAN_POINT('',(90.72537661021,-130.9651339));
#1098 = CARTESIAN_POINT('',(96.70590137121,-123.903591824));
#1099 = CARTESIAN_POINT('',(103.98328210721,-118.450879768));
#1100 = CARTESIAN_POINT('',(120.59212511521,-111.005166149));
#1101 = CARTESIAN_POINT('',(130.01083964621,-109.205810934));
#1102 = CARTESIAN_POINT('',(139.77634103621,-109.673916506));
#1103 = CARTESIAN_POINT('',(149.24722835621,-112.475477843));
#1104 = CARTESIAN_POINT('',(157.77737418121,-117.453737053));
#1105 = CARTESIAN_POINT('',(164.80986473921,-124.245512725));
#1106 = CARTESIAN_POINT('',(169.95326313721,-132.33843034));
#1107 = CARTESIAN_POINT('',(173.00736572321,-141.15486509));
#1108 = ( GEOMETRIC_REPRESENTATION_CONTEXT(2) 
PARAMETRIC_REPRESENTATION_CONTEXT() REPRESENTATION_CONTEXT('2D SPACE',''
  ) );
#1109 = ADVANCED_FACE('',(#1110),#336,.F.);
#1110 = FACE_BOUND('',#1111,.F.);
#1111 = EDGE_LOOP('',(#1112,#1113,#1114,#1152));
#1112 = ORIENTED_EDGE('',*,*,#1002,.F.);
#1113 = ORIENTED_EDGE('',*,*,#319,.F.);
#1114 = ORIENTED_EDGE('',*,*,#1115,.F.);
#1115 = EDGE_CURVE('',#1116,#292,#1118,.T.);
#1116 = VERTEX_POINT('',#1117);
#1117 = CARTESIAN_POINT('',(38.62350650343,-178.501991329,125.));
#1118 = SURFACE_CURVE('',#1119,(#1128,#1140),.PCURVE_S1.);
#1119 = B_SPLINE_CURVE_WITH_KNOTS('',4,(#1120,#1121,#1122,#1123,#1124,
    #1125,#1126,#1127),.UNSPECIFIED.,.F.,.F.,(5,3,5),(0.,0.574000710407,
    1.),.UNSPECIFIED.);
#1120 = CARTESIAN_POINT('',(38.62350650342,-178.501991329,125.));
#1121 = CARTESIAN_POINT('',(38.62350650342,-178.501991329,89.12495560311
    ));
#1122 = CARTESIAN_POINT('',(38.62350650342,-178.501991329,53.24991117823
    ));
#1123 = CARTESIAN_POINT('',(38.62350650342,-178.501991329,17.37486679689
    ));
#1124 = CARTESIAN_POINT('',(38.62350650342,-178.501991329,
    -45.12513319689));
#1125 = CARTESIAN_POINT('',(38.62350650342,-178.501991329,
    -71.75008877838));
#1126 = CARTESIAN_POINT('',(38.62350650342,-178.501991329,
    -98.37504440311));
#1127 = CARTESIAN_POINT('',(38.62350650342,-178.501991329,-125.));
#1128 = PCURVE('',#336,#1129);
#1129 = DEFINITIONAL_REPRESENTATION('',(#1130),#1139);
#1130 = B_SPLINE_CURVE_WITH_KNOTS('',4,(#1131,#1132,#1133,#1134,#1135,
    #1136,#1137,#1138),.UNSPECIFIED.,.F.,.F.,(5,3,5),(0.,0.574000710407,
    1.),.UNSPECIFIED.);
#1131 = CARTESIAN_POINT('',(4.841492345534,-249.999999975));
#1132 = CARTESIAN_POINT('',(4.841492345534,-214.124955578));
#1133 = CARTESIAN_POINT('',(4.841492345534,-178.249911209));
#1134 = CARTESIAN_POINT('',(4.841492345534,-142.374866797));
#1135 = CARTESIAN_POINT('',(4.841492345534,-79.87486680311));
#1136 = CARTESIAN_POINT('',(4.841492345534,-53.24991119082));
#1137 = CARTESIAN_POINT('',(4.841492345534,-26.62495562177));
#1138 = CARTESIAN_POINT('',(4.841492345534,-2.488020900415E-08));
#1139 = ( GEOMETRIC_REPRESENTATION_CONTEXT(2) 
PARAMETRIC_REPRESENTATION_CONTEXT() REPRESENTATION_CONTEXT('2D SPACE',''
  ) );
#1140 = PCURVE('',#307,#1141);
#1141 = DEFINITIONAL_REPRESENTATION('',(#1142),#1151);
#1142 = B_SPLINE_CURVE_WITH_KNOTS('',4,(#1143,#1144,#1145,#1146,#1147,
    #1148,#1149,#1150),.UNSPECIFIED.,.F.,.F.,(5,3,5),(0.,0.574000710407,
    1.),.UNSPECIFIED.);
#1143 = CARTESIAN_POINT('',(10.627489161148,-250.));
#1144 = CARTESIAN_POINT('',(10.627489161148,-214.1249556031));
#1145 = CARTESIAN_POINT('',(10.627489161148,-178.2499111782));
#1146 = CARTESIAN_POINT('',(10.627489161148,-142.3748667968));
#1147 = CARTESIAN_POINT('',(10.627489161148,-79.87486680311));
#1148 = CARTESIAN_POINT('',(10.627489161148,-53.24991122162));
#1149 = CARTESIAN_POINT('',(10.627489161148,-26.62495559689));
#1150 = CARTESIAN_POINT('',(10.627489161148,0.));
#1151 = ( GEOMETRIC_REPRESENTATION_CONTEXT(2) 
PARAMETRIC_REPRESENTATION_CONTEXT() REPRESENTATION_CONTEXT('2D SPACE',''
  ) );
#1152 = ORIENTED_EDGE('',*,*,#1153,.T.);
#1153 = EDGE_CURVE('',#1116,#1003,#1154,.T.);
#1154 = SURFACE_CURVE('',#1155,(#1160,#1166),.PCURVE_S1.);
#1155 = ELLIPSE('',#1156,300.,180.);
#1156 = AXIS2_PLACEMENT_3D('',#1157,#1158,#1159);
#1157 = CARTESIAN_POINT('',(0.,0.,125.));
#1158 = DIRECTION('',(0.,0.,1.));
#1159 = DIRECTION('',(1.,0.,-0.));
#1160 = PCURVE('',#336,#1161);
#1161 = DEFINITIONAL_REPRESENTATION('',(#1162),#1165);
#1162 = B_SPLINE_CURVE_WITH_KNOTS('',1,(#1163,#1164),.UNSPECIFIED.,.F.,
  .F.,(2,2),(4.841492345534,5.076105504962),.PIECEWISE_BEZIER_KNOTS.);
#1163 = CARTESIAN_POINT('',(4.841492345534,-250.));
#1164 = CARTESIAN_POINT('',(5.076105504962,-250.));
#1165 = ( GEOMETRIC_REPRESENTATION_CONTEXT(2) 
PARAMETRIC_REPRESENTATION_CONTEXT() REPRESENTATION_CONTEXT('2D SPACE',''
  ) );
#1166 = PCURVE('',#676,#1167);
#1167 = DEFINITIONAL_REPRESENTATION('',(#1168),#1172);
#1168 = ELLIPSE('',#1169,300.,180.);
#1169 = AXIS2_PLACEMENT_2D('',#1170,#1171);
#1170 = CARTESIAN_POINT('',(-19.51363749079,2.815182565418E-15));
#1171 = DIRECTION('',(1.,0.));
#1172 = ( GEOMETRIC_REPRESENTATION_CONTEXT(2) 
PARAMETRIC_REPRESENTATION_CONTEXT() REPRESENTATION_CONTEXT('2D SPACE',''
  ) );
#1173 = ADVANCED_FACE('',(#1174),#249,.F.);
#1174 = FACE_BOUND('',#1175,.F.);
#1175 = EDGE_LOOP('',(#1176,#1214,#1215,#1244));
#1176 = ORIENTED_EDGE('',*,*,#1177,.T.);
#1177 = EDGE_CURVE('',#1178,#233,#1180,.T.);
#1178 = VERTEX_POINT('',#1179);
#1179 = CARTESIAN_POINT('',(-38.62350650343,-178.501991329,125.));
#1180 = SURFACE_CURVE('',#1181,(#1190,#1202),.PCURVE_S1.);
#1181 = B_SPLINE_CURVE_WITH_KNOTS('',4,(#1182,#1183,#1184,#1185,#1186,
    #1187,#1188,#1189),.UNSPECIFIED.,.F.,.F.,(5,3,5),(0.,0.574000710407,
    1.),.UNSPECIFIED.);
#1182 = CARTESIAN_POINT('',(-38.62350650342,-178.501991329,125.));
#1183 = CARTESIAN_POINT('',(-38.62350650342,-178.501991329,
    89.12495560311));
#1184 = CARTESIAN_POINT('',(-38.62350650342,-178.501991329,
    53.24991117823));
#1185 = CARTESIAN_POINT('',(-38.62350650342,-178.501991329,
    17.37486679689));
#1186 = CARTESIAN_POINT('',(-38.62350650342,-178.501991329,
    -45.12513319689));
#1187 = CARTESIAN_POINT('',(-38.62350650342,-178.501991329,
    -71.75008877838));
#1188 = CARTESIAN_POINT('',(-38.62350650342,-178.501991329,
    -98.37504440311));
#1189 = CARTESIAN_POINT('',(-38.62350650342,-178.501991329,-125.));
#1190 = PCURVE('',#249,#1191);
#1191 = DEFINITIONAL_REPRESENTATION('',(#1192),#1201);
#1192 = B_SPLINE_CURVE_WITH_KNOTS('',4,(#1193,#1194,#1195,#1196,#1197,
    #1198,#1199,#1200),.UNSPECIFIED.,.F.,.F.,(5,3,5),(0.,0.574000710407,
    1.),.UNSPECIFIED.);
#1193 = CARTESIAN_POINT('',(4.583285615236,-249.999999975));
#1194 = CARTESIAN_POINT('',(4.583285615236,-214.124955578));
#1195 = CARTESIAN_POINT('',(4.583285615236,-178.249911209));
#1196 = CARTESIAN_POINT('',(4.583285615236,-142.374866797));
#1197 = CARTESIAN_POINT('',(4.583285615236,-79.87486680311));
#1198 = CARTESIAN_POINT('',(4.583285615236,-53.24991119082));
#1199 = CARTESIAN_POINT('',(4.583285615236,-26.62495562177));
#1200 = CARTESIAN_POINT('',(4.583285615236,-2.488020900415E-08));
#1201 = ( GEOMETRIC_REPRESENTATION_CONTEXT(2) 
PARAMETRIC_REPRESENTATION_CONTEXT() REPRESENTATION_CONTEXT('2D SPACE',''
  ) );
#1202 = PCURVE('',#279,#1203);
#1203 = DEFINITIONAL_REPRESENTATION('',(#1204),#1213);
#1204 = B_SPLINE_CURVE_WITH_KNOTS('',4,(#1205,#1206,#1207,#1208,#1209,
    #1210,#1211,#1212),.UNSPECIFIED.,.F.,.F.,(5,3,5),(0.,0.574000710407,
    1.),.UNSPECIFIED.);
#1205 = CARTESIAN_POINT('',(64.372510838852,-250.));
#1206 = CARTESIAN_POINT('',(64.372510838852,-214.1249556031));
#1207 = CARTESIAN_POINT('',(64.372510838852,-178.2499111782));
#1208 = CARTESIAN_POINT('',(64.372510838852,-142.3748667968));
#1209 = CARTESIAN_POINT('',(64.372510838852,-79.87486680311));
#1210 = CARTESIAN_POINT('',(64.372510838852,-53.24991122162));
#1211 = CARTESIAN_POINT('',(64.372510838852,-26.62495559689));
#1212 = CARTESIAN_POINT('',(64.372510838852,0.));
#1213 = ( GEOMETRIC_REPRESENTATION_CONTEXT(2) 
PARAMETRIC_REPRESENTATION_CONTEXT() REPRESENTATION_CONTEXT('2D SPACE',''
  ) );
#1214 = ORIENTED_EDGE('',*,*,#232,.F.);
#1215 = ORIENTED_EDGE('',*,*,#1216,.F.);
#1216 = EDGE_CURVE('',#1217,#145,#1219,.T.);
#1217 = VERTEX_POINT('',#1218);
#1218 = CARTESIAN_POINT('',(-92.32144010421,-171.264796765,125.));
#1219 = SURFACE_CURVE('',#1220,(#1226,#1235),.PCURVE_S1.);
#1220 = B_SPLINE_CURVE_WITH_KNOTS('',4,(#1221,#1222,#1223,#1224,#1225),
  .UNSPECIFIED.,.F.,.F.,(5,5),(0.,1.),.PIECEWISE_BEZIER_KNOTS.);
#1221 = CARTESIAN_POINT('',(-92.32144010421,-171.264796765,125.0006));
#1222 = CARTESIAN_POINT('',(-92.32144010421,-171.264796765,
    62.58832833105));
#1223 = CARTESIAN_POINT('',(-92.32144010421,-171.264796765,
    0.357081589728));
#1224 = CARTESIAN_POINT('',(-92.32144010421,-171.264796765,
    -60.33005623461));
#1225 = CARTESIAN_POINT('',(-92.32144010421,-171.264796765,-125.0006));
#1226 = PCURVE('',#249,#1227);
#1227 = DEFINITIONAL_REPRESENTATION('',(#1228),#1234);
#1228 = B_SPLINE_CURVE_WITH_KNOTS('',4,(#1229,#1230,#1231,#1232,#1233),
  .UNSPECIFIED.,.F.,.F.,(5,5),(2.403373528211E-06,0.999997680551),
  .PIECEWISE_BEZIER_KNOTS.);
#1229 = CARTESIAN_POINT('',(4.399574095518,-250.));
#1230 = CARTESIAN_POINT('',(4.399574095518,-187.5880243983));
#1231 = CARTESIAN_POINT('',(4.399574095518,-125.3570785666));
#1232 = CARTESIAN_POINT('',(4.399574095518,-64.67021062018));
#1233 = CARTESIAN_POINT('',(4.399574095518,5.535028273392E-14));
#1234 = ( GEOMETRIC_REPRESENTATION_CONTEXT(2) 
PARAMETRIC_REPRESENTATION_CONTEXT() REPRESENTATION_CONTEXT('2D SPACE',''
  ) );
#1235 = PCURVE('',#206,#1236);
#1236 = DEFINITIONAL_REPRESENTATION('',(#1237),#1243);
#1237 = B_SPLINE_CURVE_WITH_KNOTS('',4,(#1238,#1239,#1240,#1241,#1242),
  .UNSPECIFIED.,.F.,.F.,(5,5),(2.403373528211E-06,0.999997680551),
  .PIECEWISE_BEZIER_KNOTS.);
#1238 = CARTESIAN_POINT('',(0.124515637837,-259.99999999));
#1239 = CARTESIAN_POINT('',(0.124515637837,-197.5880243883));
#1240 = CARTESIAN_POINT('',(0.124515637837,-135.3570785786));
#1241 = CARTESIAN_POINT('',(0.124515637837,-74.67021062024));
#1242 = CARTESIAN_POINT('',(0.124515637837,-10.00000000006));
#1243 = ( GEOMETRIC_REPRESENTATION_CONTEXT(2) 
PARAMETRIC_REPRESENTATION_CONTEXT() REPRESENTATION_CONTEXT('2D SPACE',''
  ) );
#1244 = ORIENTED_EDGE('',*,*,#1245,.T.);
#1245 = EDGE_CURVE('',#1217,#1178,#1246,.T.);
#1246 = SURFACE_CURVE('',#1247,(#1252,#1258),.PCURVE_S1.);
#1247 = ELLIPSE('',#1248,300.,180.);
#1248 = AXIS2_PLACEMENT_3D('',#1249,#1250,#1251);
#1249 = CARTESIAN_POINT('',(0.,0.,125.));
#1250 = DIRECTION('',(0.,0.,1.));
#1251 = DIRECTION('',(1.,0.,-0.));
#1252 = PCURVE('',#249,#1253);
#1253 = DEFINITIONAL_REPRESENTATION('',(#1254),#1257);
#1254 = B_SPLINE_CURVE_WITH_KNOTS('',1,(#1255,#1256),.UNSPECIFIED.,.F.,
  .F.,(2,2),(4.399574095518,4.583285615236),.PIECEWISE_BEZIER_KNOTS.);
#1255 = CARTESIAN_POINT('',(4.399574095518,-250.));
#1256 = CARTESIAN_POINT('',(4.583285615236,-250.));
#1257 = ( GEOMETRIC_REPRESENTATION_CONTEXT(2) 
PARAMETRIC_REPRESENTATION_CONTEXT() REPRESENTATION_CONTEXT('2D SPACE',''
  ) );
#1258 = PCURVE('',#676,#1259);
#1259 = DEFINITIONAL_REPRESENTATION('',(#1260),#1264);
#1260 = ELLIPSE('',#1261,300.,180.);
#1261 = AXIS2_PLACEMENT_2D('',#1262,#1263);
#1262 = CARTESIAN_POINT('',(-19.51363749079,2.815182565418E-15));
#1263 = DIRECTION('',(1.,0.));
#1264 = ( GEOMETRIC_REPRESENTATION_CONTEXT(2) 
PARAMETRIC_REPRESENTATION_CONTEXT() REPRESENTATION_CONTEXT('2D SPACE',''
  ) );
#1265 = ADVANCED_FACE('',(#1266),#206,.T.);
#1266 = FACE_BOUND('',#1267,.T.);
#1267 = EDGE_LOOP('',(#1268,#1300,#1301,#1302));
#1268 = ORIENTED_EDGE('',*,*,#1269,.F.);
#1269 = EDGE_CURVE('',#114,#1270,#1272,.T.);
#1270 = VERTEX_POINT('',#1271);
#1271 = CARTESIAN_POINT('',(-204.472050506,-131.714938417,125.));
#1272 = SURFACE_CURVE('',#1273,(#1280,#1290),.PCURVE_S1.);
#1273 = B_SPLINE_CURVE_WITH_KNOTS('',5,(#1274,#1275,#1276,#1277,#1278,
    #1279),.UNSPECIFIED.,.F.,.F.,(6,6),(0.,1.),
  .PIECEWISE_BEZIER_KNOTS.);
#1274 = CARTESIAN_POINT('',(-204.472050506,-131.714938417,-125.0006));
#1275 = CARTESIAN_POINT('',(-204.472050506,-131.714938417,
    -75.81036513042));
#1276 = CARTESIAN_POINT('',(-204.472050506,-131.714938417,
    -24.25350807475));
#1277 = CARTESIAN_POINT('',(-204.472050506,-131.714938417,25.87518246264
    ));
#1278 = CARTESIAN_POINT('',(-204.472050506,-131.714938417,74.44945437677
    ));
#1279 = CARTESIAN_POINT('',(-204.472050506,-131.714938417,125.0006));
#1280 = PCURVE('',#206,#1281);
#1281 = DEFINITIONAL_REPRESENTATION('',(#1282),#1289);
#1282 = B_SPLINE_CURVE_WITH_KNOTS('',5,(#1283,#1284,#1285,#1286,#1287,
    #1288),.UNSPECIFIED.,.F.,.F.,(6,6),(2.439508006963E-06,
    0.999997626166),.PIECEWISE_BEZIER_KNOTS.);
#1283 = CARTESIAN_POINT('',(2.998014320112,-10.00000000006));
#1284 = CARTESIAN_POINT('',(2.998014320112,-59.19002119355));
#1285 = CARTESIAN_POINT('',(2.998014320112,-110.7466140042));
#1286 = CARTESIAN_POINT('',(2.998014320112,-160.8750624911));
#1287 = CARTESIAN_POINT('',(2.998014320112,-209.4491164578));
#1288 = CARTESIAN_POINT('',(2.998014320112,-259.99999999));
#1289 = ( GEOMETRIC_REPRESENTATION_CONTEXT(2) 
PARAMETRIC_REPRESENTATION_CONTEXT() REPRESENTATION_CONTEXT('2D SPACE',''
  ) );
#1290 = PCURVE('',#130,#1291);
#1291 = DEFINITIONAL_REPRESENTATION('',(#1292),#1299);
#1292 = B_SPLINE_CURVE_WITH_KNOTS('',5,(#1293,#1294,#1295,#1296,#1297,
    #1298),.UNSPECIFIED.,.F.,.F.,(6,6),(2.439508006963E-06,
    0.999997626166),.PIECEWISE_BEZIER_KNOTS.);
#1293 = CARTESIAN_POINT('',(3.962478165322,3.866858547773E-14));
#1294 = CARTESIAN_POINT('',(3.962478165322,-49.19002119349));
#1295 = CARTESIAN_POINT('',(3.962478165322,-100.7466140182));
#1296 = CARTESIAN_POINT('',(3.962478165322,-150.8750624661));
#1297 = CARTESIAN_POINT('',(3.962478165322,-199.4491164678));
#1298 = CARTESIAN_POINT('',(3.962478165322,-250.));
#1299 = ( GEOMETRIC_REPRESENTATION_CONTEXT(2) 
PARAMETRIC_REPRESENTATION_CONTEXT() REPRESENTATION_CONTEXT('2D SPACE',''
  ) );
#1300 = ORIENTED_EDGE('',*,*,#144,.T.);
#1301 = ORIENTED_EDGE('',*,*,#1216,.F.);
#1302 = ORIENTED_EDGE('',*,*,#1303,.F.);
#1303 = EDGE_CURVE('',#1270,#1217,#1304,.T.);
#1304 = SURFACE_CURVE('',#1305,(#1332,#1350),.PCURVE_S1.);
#1305 = B_SPLINE_CURVE_WITH_KNOTS('',7,(#1306,#1307,#1308,#1309,#1310,
    #1311,#1312,#1313,#1314,#1315,#1316,#1317,#1318,#1319,#1320,#1321,
    #1322,#1323,#1324,#1325,#1326,#1327,#1328,#1329,#1330,#1331),
  .UNSPECIFIED.,.F.,.F.,(8,6,6,6,8),(0.,1.689163677064E-02,
    0.278149388623,0.639074694311,1.),.UNSPECIFIED.);
#1306 = CARTESIAN_POINT('',(-180.559866042,-180.,125.));
#1307 = CARTESIAN_POINT('',(-181.156347925,-179.636037016,125.));
#1308 = CARTESIAN_POINT('',(-181.673461058,-179.313154075,125.));
#1309 = CARTESIAN_POINT('',(-182.171148406,-178.997959487,125.));
#1310 = CARTESIAN_POINT('',(-182.676013537,-178.673087799,125.));
#1311 = CARTESIAN_POINT('',(-183.199641937,-178.329963069,125.));
#1312 = CARTESIAN_POINT('',(-183.723568232,-177.979430518,125.));
#1313 = CARTESIAN_POINT('',(-191.785563399,-172.496821617,125.));
#1314 = CARTESIAN_POINT('',(-198.307009939,-166.676918883,125.));
#1315 = CARTESIAN_POINT('',(-203.451416273,-160.407402525,125.));
#1316 = CARTESIAN_POINT('',(-206.958243661,-153.953989611,125.));
#1317 = CARTESIAN_POINT('',(-208.671542164,-147.600485213,125.));
#1318 = CARTESIAN_POINT('',(-208.556667229,-141.620082821,125.));
#1319 = CARTESIAN_POINT('',(-204.122339333,-128.819280797,125.));
#1320 = CARTESIAN_POINT('',(-198.215286742,-122.548512729,125.));
#1321 = CARTESIAN_POINT('',(-189.185838492,-118.046086685,125.));
#1322 = CARTESIAN_POINT('',(-177.662868271,-115.781561857,125.));
#1323 = CARTESIAN_POINT('',(-164.645188123,-115.944266764,125.));
#1324 = CARTESIAN_POINT('',(-151.258101727,-118.408235104,125.));
#1325 = CARTESIAN_POINT('',(-125.829019798,-127.217127482,125.));
#1326 = CARTESIAN_POINT('',(-113.786409647,-133.56226443,125.));
#1327 = CARTESIAN_POINT('',(-103.457584829,-141.48702608,125.));
#1328 = CARTESIAN_POINT('',(-95.80463396109,-150.394284829,125.));
#1329 = CARTESIAN_POINT('',(-91.49522128789,-159.51742784,125.));
#1330 = CARTESIAN_POINT('',(-90.73299742986,-168.09850104,125.));
#1331 = CARTESIAN_POINT('',(-93.30532904862,-175.524182802,125.));
#1332 = PCURVE('',#206,#1333);
#1333 = DEFINITIONAL_REPRESENTATION('',(#1334),#1349);
#1334 = B_SPLINE_CURVE_WITH_KNOTS('',7,(#1335,#1336,#1337,#1338,#1339,
    #1340,#1341,#1342,#1343,#1344,#1345,#1346,#1347,#1348),
  .UNSPECIFIED.,.F.,.F.,(8,6,8),(0.311120355627,0.639074694534,
    0.971406584277),.UNSPECIFIED.);
#1335 = CARTESIAN_POINT('',(2.998014320109,-260.));
#1336 = CARTESIAN_POINT('',(2.793996928483,-260.));
#1337 = CARTESIAN_POINT('',(2.589995286961,-260.));
#1338 = CARTESIAN_POINT('',(2.386049316988,-260.));
#1339 = CARTESIAN_POINT('',(2.182172215315,-260.));
#1340 = CARTESIAN_POINT('',(1.978354610294,-260.));
#1341 = CARTESIAN_POINT('',(1.774573018889,-260.));
#1342 = CARTESIAN_POINT('',(1.364299613275,-260.));
#1343 = CARTESIAN_POINT('',(1.157797868779,-260.));
#1344 = CARTESIAN_POINT('',(0.951258716345,-260.));
#1345 = CARTESIAN_POINT('',(0.744657825981,-260.));
#1346 = CARTESIAN_POINT('',(0.537985838924,-260.));
#1347 = CARTESIAN_POINT('',(0.331257432583,-260.));
#1348 = CARTESIAN_POINT('',(0.124515637831,-260.));
#1349 = ( GEOMETRIC_REPRESENTATION_CONTEXT(2) 
PARAMETRIC_REPRESENTATION_CONTEXT() REPRESENTATION_CONTEXT('2D SPACE',''
  ) );
#1350 = PCURVE('',#676,#1351);
#1351 = DEFINITIONAL_REPRESENTATION('',(#1352),#1379);
#1352 = B_SPLINE_CURVE_WITH_KNOTS('',7,(#1353,#1354,#1355,#1356,#1357,
    #1358,#1359,#1360,#1361,#1362,#1363,#1364,#1365,#1366,#1367,#1368,
    #1369,#1370,#1371,#1372,#1373,#1374,#1375,#1376,#1377,#1378),
  .UNSPECIFIED.,.F.,.F.,(8,6,6,6,8),(0.,1.689163677064E-02,
    0.278149388623,0.639074694311,1.),.UNSPECIFIED.);
#1353 = CARTESIAN_POINT('',(-200.0735035327,-180.));
#1354 = CARTESIAN_POINT('',(-200.6699854157,-179.636037016));
#1355 = CARTESIAN_POINT('',(-201.1870985487,-179.313154075));
#1356 = CARTESIAN_POINT('',(-201.6847858967,-178.997959487));
#1357 = CARTESIAN_POINT('',(-202.1896510277,-178.673087799));
#1358 = CARTESIAN_POINT('',(-202.7132794277,-178.329963069));
#1359 = CARTESIAN_POINT('',(-203.2372057227,-177.979430518));
#1360 = CARTESIAN_POINT('',(-211.2992008897,-172.496821617));
#1361 = CARTESIAN_POINT('',(-217.8206474297,-166.676918883));
#1362 = CARTESIAN_POINT('',(-222.9650537637,-160.407402525));
#1363 = CARTESIAN_POINT('',(-226.4718811517,-153.953989611));
#1364 = CARTESIAN_POINT('',(-228.1851796547,-147.600485213));
#1365 = CARTESIAN_POINT('',(-228.0703047197,-141.620082821));
#1366 = CARTESIAN_POINT('',(-223.6359768237,-128.819280797));
#1367 = CARTESIAN_POINT('',(-217.7289242327,-122.548512729));
#1368 = CARTESIAN_POINT('',(-208.6994759827,-118.046086685));
#1369 = CARTESIAN_POINT('',(-197.1765057617,-115.781561857));
#1370 = CARTESIAN_POINT('',(-184.1588256137,-115.944266764));
#1371 = CARTESIAN_POINT('',(-170.7717392177,-118.408235104));
#1372 = CARTESIAN_POINT('',(-145.3426572887,-127.217127482));
#1373 = CARTESIAN_POINT('',(-133.3000471377,-133.56226443));
#1374 = CARTESIAN_POINT('',(-122.9712223197,-141.48702608));
#1375 = CARTESIAN_POINT('',(-115.3182714518,-150.394284829));
#1376 = CARTESIAN_POINT('',(-111.0088587786,-159.51742784));
#1377 = CARTESIAN_POINT('',(-110.2466349206,-168.09850104));
#1378 = CARTESIAN_POINT('',(-112.8189665394,-175.524182802));
#1379 = ( GEOMETRIC_REPRESENTATION_CONTEXT(2) 
PARAMETRIC_REPRESENTATION_CONTEXT() REPRESENTATION_CONTEXT('2D SPACE',''
  ) );
#1380 = ADVANCED_FACE('',(#1381),#130,.F.);
#1381 = FACE_BOUND('',#1382,.F.);
#1382 = EDGE_LOOP('',(#1383,#1384,#1385,#1423));
#1383 = ORIENTED_EDGE('',*,*,#1269,.F.);
#1384 = ORIENTED_EDGE('',*,*,#113,.F.);
#1385 = ORIENTED_EDGE('',*,*,#1386,.F.);
#1386 = EDGE_CURVE('',#1387,#91,#1389,.T.);
#1387 = VERTEX_POINT('',#1388);
#1388 = CARTESIAN_POINT('',(-191.524918109,138.544411896,125.));
#1389 = SURFACE_CURVE('',#1390,(#1399,#1411),.PCURVE_S1.);
#1390 = B_SPLINE_CURVE_WITH_KNOTS('',4,(#1391,#1392,#1393,#1394,#1395,
    #1396,#1397,#1398),.UNSPECIFIED.,.F.,.F.,(5,3,5),(0.,0.829649359032,
    1.),.UNSPECIFIED.);
#1391 = CARTESIAN_POINT('',(-191.524918109,138.544411896,125.0006));
#1392 = CARTESIAN_POINT('',(-191.524918109,138.544411896,73.14726616638)
  );
#1393 = CARTESIAN_POINT('',(-191.524918109,138.544411896,21.29393233183)
  );
#1394 = CARTESIAN_POINT('',(-191.524918109,138.544411896,-30.55940150127
    ));
#1395 = CARTESIAN_POINT('',(-191.524918109,138.544411896,-93.05970150044
    ));
#1396 = CARTESIAN_POINT('',(-191.524918109,138.544411896,-103.706667662)
  );
#1397 = CARTESIAN_POINT('',(-191.524918109,138.544411896,-114.353633834)
  );
#1398 = CARTESIAN_POINT('',(-191.524918109,138.544411896,-125.0006));
#1399 = PCURVE('',#130,#1400);
#1400 = DEFINITIONAL_REPRESENTATION('',(#1401),#1410);
#1401 = B_SPLINE_CURVE_WITH_KNOTS('',4,(#1402,#1403,#1404,#1405,#1406,
    #1407,#1408,#1409),.UNSPECIFIED.,.F.,.F.,(5,3,5),(2.399988480066E-06
    ,0.829649359032,0.999997600012),.UNSPECIFIED.);
#1402 = CARTESIAN_POINT('',(2.263235375644,-250.));
#1403 = CARTESIAN_POINT('',(2.263235375644,-198.146816166));
#1404 = CARTESIAN_POINT('',(2.263235375644,-146.293632332));
#1405 = CARTESIAN_POINT('',(2.263235375644,-94.44044849873));
#1406 = CARTESIAN_POINT('',(2.263235375644,-31.94044849956));
#1407 = CARTESIAN_POINT('',(2.263235375644,-21.2936323376));
#1408 = CARTESIAN_POINT('',(2.263235375644,-10.64681616555));
#1409 = CARTESIAN_POINT('',(2.263235375644,5.142877768614E-14));
#1410 = ( GEOMETRIC_REPRESENTATION_CONTEXT(2) 
PARAMETRIC_REPRESENTATION_CONTEXT() REPRESENTATION_CONTEXT('2D SPACE',''
  ) );
#1411 = PCURVE('',#76,#1412);
#1412 = DEFINITIONAL_REPRESENTATION('',(#1413),#1422);
#1413 = B_SPLINE_CURVE_WITH_KNOTS('',4,(#1414,#1415,#1416,#1417,#1418,
    #1419,#1420,#1421),.UNSPECIFIED.,.F.,.F.,(5,3,5),(2.399988480267E-06
    ,0.829649359032,0.999997600012),.UNSPECIFIED.);
#1414 = CARTESIAN_POINT('',(6.345285030566,-249.999999999));
#1415 = CARTESIAN_POINT('',(6.345285030566,-198.146816165));
#1416 = CARTESIAN_POINT('',(6.345285030566,-146.293632333));
#1417 = CARTESIAN_POINT('',(6.345285030566,-94.44044849873));
#1418 = CARTESIAN_POINT('',(6.345285030566,-31.94044849956));
#1419 = CARTESIAN_POINT('',(6.345285030566,-21.29363232686));
#1420 = CARTESIAN_POINT('',(6.345285030566,-10.64681617431));
#1421 = CARTESIAN_POINT('',(6.345285030566,-8.766019742758E-09));
#1422 = ( GEOMETRIC_REPRESENTATION_CONTEXT(2) 
PARAMETRIC_REPRESENTATION_CONTEXT() REPRESENTATION_CONTEXT('2D SPACE',''
  ) );
#1423 = ORIENTED_EDGE('',*,*,#1424,.T.);
#1424 = EDGE_CURVE('',#1387,#1270,#1425,.T.);
#1425 = SURFACE_CURVE('',#1426,(#1431,#1437),.PCURVE_S1.);
#1426 = ELLIPSE('',#1427,300.,180.);
#1427 = AXIS2_PLACEMENT_3D('',#1428,#1429,#1430);
#1428 = CARTESIAN_POINT('',(0.,0.,125.));
#1429 = DIRECTION('',(0.,0.,1.));
#1430 = DIRECTION('',(1.,0.,-0.));
#1431 = PCURVE('',#130,#1432);
#1432 = DEFINITIONAL_REPRESENTATION('',(#1433),#1436);
#1433 = B_SPLINE_CURVE_WITH_KNOTS('',1,(#1434,#1435),.UNSPECIFIED.,.F.,
  .F.,(2,2),(2.263235375645,3.962478165321),.PIECEWISE_BEZIER_KNOTS.);
#1434 = CARTESIAN_POINT('',(2.263235375645,-250.));
#1435 = CARTESIAN_POINT('',(3.962478165321,-250.));
#1436 = ( GEOMETRIC_REPRESENTATION_CONTEXT(2) 
PARAMETRIC_REPRESENTATION_CONTEXT() REPRESENTATION_CONTEXT('2D SPACE',''
  ) );
#1437 = PCURVE('',#676,#1438);
#1438 = DEFINITIONAL_REPRESENTATION('',(#1439),#1443);
#1439 = ELLIPSE('',#1440,300.,180.);
#1440 = AXIS2_PLACEMENT_2D('',#1441,#1442);
#1441 = CARTESIAN_POINT('',(-19.51363749079,2.815182565418E-15));
#1442 = DIRECTION('',(1.,0.));
#1443 = ( GEOMETRIC_REPRESENTATION_CONTEXT(2) 
PARAMETRIC_REPRESENTATION_CONTEXT() REPRESENTATION_CONTEXT('2D SPACE',''
  ) );
#1444 = ADVANCED_FACE('',(#1445),#279,.T.);
#1445 = FACE_BOUND('',#1446,.T.);
#1446 = EDGE_LOOP('',(#1447,#1448,#1471,#1492));
#1447 = ORIENTED_EDGE('',*,*,#263,.F.);
#1448 = ORIENTED_EDGE('',*,*,#1449,.T.);
#1449 = EDGE_CURVE('',#264,#1450,#1452,.T.);
#1450 = VERTEX_POINT('',#1451);
#1451 = CARTESIAN_POINT('',(0.,-230.,125.));
#1452 = SURFACE_CURVE('',#1453,(#1457,#1464),.PCURVE_S1.);
#1453 = LINE('',#1454,#1455);
#1454 = CARTESIAN_POINT('',(0.,-230.,-125.));
#1455 = VECTOR('',#1456,1.);
#1456 = DIRECTION('',(0.,0.,1.));
#1457 = PCURVE('',#279,#1458);
#1458 = DEFINITIONAL_REPRESENTATION('',(#1459),#1463);
#1459 = LINE('',#1460,#1461);
#1460 = CARTESIAN_POINT('',(0.,0.));
#1461 = VECTOR('',#1462,1.);
#1462 = DIRECTION('',(0.,-1.));
#1463 = ( GEOMETRIC_REPRESENTATION_CONTEXT(2) 
PARAMETRIC_REPRESENTATION_CONTEXT() REPRESENTATION_CONTEXT('2D SPACE',''
  ) );
#1464 = PCURVE('',#307,#1465);
#1465 = DEFINITIONAL_REPRESENTATION('',(#1466),#1470);
#1466 = LINE('',#1467,#1468);
#1467 = CARTESIAN_POINT('',(75.,0.));
#1468 = VECTOR('',#1469,1.);
#1469 = DIRECTION('',(0.,-1.));
#1470 = ( GEOMETRIC_REPRESENTATION_CONTEXT(2) 
PARAMETRIC_REPRESENTATION_CONTEXT() REPRESENTATION_CONTEXT('2D SPACE',''
  ) );
#1471 = ORIENTED_EDGE('',*,*,#1472,.T.);
#1472 = EDGE_CURVE('',#1450,#1178,#1473,.T.);
#1473 = SURFACE_CURVE('',#1474,(#1478,#1485),.PCURVE_S1.);
#1474 = LINE('',#1475,#1476);
#1475 = CARTESIAN_POINT('',(0.,-230.,125.));
#1476 = VECTOR('',#1477,1.);
#1477 = DIRECTION('',(-0.6,0.8,0.));
#1478 = PCURVE('',#279,#1479);
#1479 = DEFINITIONAL_REPRESENTATION('',(#1480),#1484);
#1480 = LINE('',#1481,#1482);
#1481 = CARTESIAN_POINT('',(0.,-250.));
#1482 = VECTOR('',#1483,1.);
#1483 = DIRECTION('',(1.,0.));
#1484 = ( GEOMETRIC_REPRESENTATION_CONTEXT(2) 
PARAMETRIC_REPRESENTATION_CONTEXT() REPRESENTATION_CONTEXT('2D SPACE',''
  ) );
#1485 = PCURVE('',#676,#1486);
#1486 = DEFINITIONAL_REPRESENTATION('',(#1487),#1491);
#1487 = LINE('',#1488,#1489);
#1488 = CARTESIAN_POINT('',(-19.51363749079,-230.));
#1489 = VECTOR('',#1490,1.);
#1490 = DIRECTION('',(-0.6,0.8));
#1491 = ( GEOMETRIC_REPRESENTATION_CONTEXT(2) 
PARAMETRIC_REPRESENTATION_CONTEXT() REPRESENTATION_CONTEXT('2D SPACE',''
  ) );
#1492 = ORIENTED_EDGE('',*,*,#1177,.T.);
#1493 = ADVANCED_FACE('',(#1494),#307,.T.);
#1494 = FACE_BOUND('',#1495,.T.);
#1495 = EDGE_LOOP('',(#1496,#1497,#1498,#1519));
#1496 = ORIENTED_EDGE('',*,*,#291,.F.);
#1497 = ORIENTED_EDGE('',*,*,#1115,.F.);
#1498 = ORIENTED_EDGE('',*,*,#1499,.T.);
#1499 = EDGE_CURVE('',#1116,#1450,#1500,.T.);
#1500 = SURFACE_CURVE('',#1501,(#1505,#1512),.PCURVE_S1.);
#1501 = LINE('',#1502,#1503);
#1502 = CARTESIAN_POINT('',(45.,-170.,125.));
#1503 = VECTOR('',#1504,1.);
#1504 = DIRECTION('',(-0.6,-0.8,0.));
#1505 = PCURVE('',#307,#1506);
#1506 = DEFINITIONAL_REPRESENTATION('',(#1507),#1511);
#1507 = LINE('',#1508,#1509);
#1508 = CARTESIAN_POINT('',(0.,-250.));
#1509 = VECTOR('',#1510,1.);
#1510 = DIRECTION('',(1.,0.));
#1511 = ( GEOMETRIC_REPRESENTATION_CONTEXT(2) 
PARAMETRIC_REPRESENTATION_CONTEXT() REPRESENTATION_CONTEXT('2D SPACE',''
  ) );
#1512 = PCURVE('',#676,#1513);
#1513 = DEFINITIONAL_REPRESENTATION('',(#1514),#1518);
#1514 = LINE('',#1515,#1516);
#1515 = CARTESIAN_POINT('',(25.48636250921,-170.));
#1516 = VECTOR('',#1517,1.);
#1517 = DIRECTION('',(-0.6,-0.8));
#1518 = ( GEOMETRIC_REPRESENTATION_CONTEXT(2) 
PARAMETRIC_REPRESENTATION_CONTEXT() REPRESENTATION_CONTEXT('2D SPACE',''
  ) );
#1519 = ORIENTED_EDGE('',*,*,#1449,.F.);
#1520 = ADVANCED_FACE('',(#1521),#76,.F.);
#1521 = FACE_BOUND('',#1522,.F.);
#1522 = EDGE_LOOP('',(#1523,#1546,#1567,#1568,#1569,#1570));
#1523 = ORIENTED_EDGE('',*,*,#1524,.T.);
#1524 = EDGE_CURVE('',#661,#1525,#1527,.T.);
#1525 = VERTEX_POINT('',#1526);
#1526 = CARTESIAN_POINT('',(-192.521003214,141.15486509,125.));
#1527 = SURFACE_CURVE('',#1528,(#1533,#1539),.PCURVE_S1.);
#1528 = ELLIPSE('',#1529,45.,45.);
#1529 = AXIS2_PLACEMENT_3D('',#1530,#1531,#1532);
#1530 = CARTESIAN_POINT('',(-150.,155.884572681,125.));
#1531 = DIRECTION('',(0.,0.,1.));
#1532 = DIRECTION('',(-0.944911182523,-0.327326835354,0.));
#1533 = PCURVE('',#76,#1534);
#1534 = DEFINITIONAL_REPRESENTATION('',(#1535),#1538);
#1535 = B_SPLINE_CURVE_WITH_KNOTS('',1,(#1536,#1537),.UNSPECIFIED.,.F.,
  .F.,(2,2),(3.085901007621,6.28318530718),.PIECEWISE_BEZIER_KNOTS.);
#1536 = CARTESIAN_POINT('',(3.085901007621,-250.));
#1537 = CARTESIAN_POINT('',(6.28318530718,-250.));
#1538 = ( GEOMETRIC_REPRESENTATION_CONTEXT(2) 
PARAMETRIC_REPRESENTATION_CONTEXT() REPRESENTATION_CONTEXT('2D SPACE',''
  ) );
#1539 = PCURVE('',#676,#1540);
#1540 = DEFINITIONAL_REPRESENTATION('',(#1541),#1545);
#1541 = CIRCLE('',#1542,45.);
#1542 = AXIS2_PLACEMENT_2D('',#1543,#1544);
#1543 = CARTESIAN_POINT('',(-169.5136374907,155.884572681));
#1544 = DIRECTION('',(-0.944911182523,-0.327326835354));
#1545 = ( GEOMETRIC_REPRESENTATION_CONTEXT(2) 
PARAMETRIC_REPRESENTATION_CONTEXT() REPRESENTATION_CONTEXT('2D SPACE',''
  ) );
#1546 = ORIENTED_EDGE('',*,*,#1547,.T.);
#1547 = EDGE_CURVE('',#1525,#1387,#1548,.T.);
#1548 = SURFACE_CURVE('',#1549,(#1554,#1560),.PCURVE_S1.);
#1549 = ELLIPSE('',#1550,45.,45.);
#1550 = AXIS2_PLACEMENT_3D('',#1551,#1552,#1553);
#1551 = CARTESIAN_POINT('',(-150.,155.884572681,125.));
#1552 = DIRECTION('',(0.,0.,1.));
#1553 = DIRECTION('',(-0.944911182523,-0.327326835354,0.));
#1554 = PCURVE('',#76,#1555);
#1555 = DEFINITIONAL_REPRESENTATION('',(#1556),#1559);
#1556 = B_SPLINE_CURVE_WITH_KNOTS('',1,(#1557,#1558),.UNSPECIFIED.,.F.,
  .F.,(2,2),(0.,6.20997233865E-02),.PIECEWISE_BEZIER_KNOTS.);
#1557 = CARTESIAN_POINT('',(6.28318530718,-250.));
#1558 = CARTESIAN_POINT('',(6.345285030566,-250.));
#1559 = ( GEOMETRIC_REPRESENTATION_CONTEXT(2) 
PARAMETRIC_REPRESENTATION_CONTEXT() REPRESENTATION_CONTEXT('2D SPACE',''
  ) );
#1560 = PCURVE('',#676,#1561);
#1561 = DEFINITIONAL_REPRESENTATION('',(#1562),#1566);
#1562 = CIRCLE('',#1563,45.);
#1563 = AXIS2_PLACEMENT_2D('',#1564,#1565);
#1564 = CARTESIAN_POINT('',(-169.5136374907,155.884572681));
#1565 = DIRECTION('',(-0.944911182523,-0.327326835354));
#1566 = ( GEOMETRIC_REPRESENTATION_CONTEXT(2) 
PARAMETRIC_REPRESENTATION_CONTEXT() REPRESENTATION_CONTEXT('2D SPACE',''
  ) );
#1567 = ORIENTED_EDGE('',*,*,#1386,.T.);
#1568 = ORIENTED_EDGE('',*,*,#90,.F.);
#1569 = ORIENTED_EDGE('',*,*,#59,.F.);
#1570 = ORIENTED_EDGE('',*,*,#688,.T.);
#1571 = ADVANCED_FACE('',(#1572),#676,.T.);
#1572 = FACE_BOUND('',#1573,.T.);
#1573 = EDGE_LOOP('',(#1574,#1575,#1576,#1577,#1578,#1579,#1580,#1581,
    #1582,#1583,#1584,#1585,#1586,#1609,#1630,#1631,#1632));
#1574 = ORIENTED_EDGE('',*,*,#660,.T.);
#1575 = ORIENTED_EDGE('',*,*,#1524,.T.);
#1576 = ORIENTED_EDGE('',*,*,#1547,.T.);
#1577 = ORIENTED_EDGE('',*,*,#1424,.T.);
#1578 = ORIENTED_EDGE('',*,*,#1303,.T.);
#1579 = ORIENTED_EDGE('',*,*,#1245,.T.);
#1580 = ORIENTED_EDGE('',*,*,#1472,.F.);
#1581 = ORIENTED_EDGE('',*,*,#1499,.F.);
#1582 = ORIENTED_EDGE('',*,*,#1153,.T.);
#1583 = ORIENTED_EDGE('',*,*,#1036,.T.);
#1584 = ORIENTED_EDGE('',*,*,#926,.T.);
#1585 = ORIENTED_EDGE('',*,*,#949,.T.);
#1586 = ORIENTED_EDGE('',*,*,#1587,.T.);
#1587 = EDGE_CURVE('',#950,#1588,#1590,.T.);
#1588 = VERTEX_POINT('',#1589);
#1589 = CARTESIAN_POINT('',(93.30532904862,175.524182802,125.));
#1590 = SURFACE_CURVE('',#1591,(#1596,#1603),.PCURVE_S1.);
#1591 = ELLIPSE('',#1592,60.,35.);
#1592 = AXIS2_PLACEMENT_3D('',#1593,#1594,#1595);
#1593 = CARTESIAN_POINT('',(150.,155.884572681,125.));
#1594 = DIRECTION('',(0.,0.,1.));
#1595 = DIRECTION('',(-0.944911182523,0.327326835354,0.));
#1596 = PCURVE('',#676,#1597);
#1597 = DEFINITIONAL_REPRESENTATION('',(#1598),#1602);
#1598 = ELLIPSE('',#1599,60.,35.);
#1599 = AXIS2_PLACEMENT_2D('',#1600,#1601);
#1600 = CARTESIAN_POINT('',(130.48636250921,155.884572681));
#1601 = DIRECTION('',(-0.944911182523,0.327326835354));
#1602 = ( GEOMETRIC_REPRESENTATION_CONTEXT(2) 
PARAMETRIC_REPRESENTATION_CONTEXT() REPRESENTATION_CONTEXT('2D SPACE',''
  ) );
#1603 = PCURVE('',#505,#1604);
#1604 = DEFINITIONAL_REPRESENTATION('',(#1605),#1608);
#1605 = B_SPLINE_CURVE_WITH_KNOTS('',1,(#1606,#1607),.UNSPECIFIED.,.F.,
  .F.,(2,2),(2.998014320112,6.28318530718),.PIECEWISE_BEZIER_KNOTS.);
#1606 = CARTESIAN_POINT('',(2.998014320112,-250.));
#1607 = CARTESIAN_POINT('',(6.28318530718,-250.));
#1608 = ( GEOMETRIC_REPRESENTATION_CONTEXT(2) 
PARAMETRIC_REPRESENTATION_CONTEXT() REPRESENTATION_CONTEXT('2D SPACE',''
  ) );
#1609 = ORIENTED_EDGE('',*,*,#1610,.T.);
#1610 = EDGE_CURVE('',#1588,#833,#1611,.T.);
#1611 = SURFACE_CURVE('',#1612,(#1617,#1624),.PCURVE_S1.);
#1612 = ELLIPSE('',#1613,60.,35.);
#1613 = AXIS2_PLACEMENT_3D('',#1614,#1615,#1616);
#1614 = CARTESIAN_POINT('',(150.,155.884572681,125.));
#1615 = DIRECTION('',(0.,0.,1.));
#1616 = DIRECTION('',(-0.944911182523,0.327326835354,0.));
#1617 = PCURVE('',#676,#1618);
#1618 = DEFINITIONAL_REPRESENTATION('',(#1619),#1623);
#1619 = ELLIPSE('',#1620,60.,35.);
#1620 = AXIS2_PLACEMENT_2D('',#1621,#1622);
#1621 = CARTESIAN_POINT('',(130.48636250921,155.884572681));
#1622 = DIRECTION('',(-0.944911182523,0.327326835354));
#1623 = ( GEOMETRIC_REPRESENTATION_CONTEXT(2) 
PARAMETRIC_REPRESENTATION_CONTEXT() REPRESENTATION_CONTEXT('2D SPACE',''
  ) );
#1624 = PCURVE('',#505,#1625);
#1625 = DEFINITIONAL_REPRESENTATION('',(#1626),#1629);
#1626 = B_SPLINE_CURVE_WITH_KNOTS('',1,(#1627,#1628),.UNSPECIFIED.,.F.,
  .F.,(2,2),(0.,0.124515637837),.PIECEWISE_BEZIER_KNOTS.);
#1627 = CARTESIAN_POINT('',(6.28318530718,-250.));
#1628 = CARTESIAN_POINT('',(6.407700945017,-250.));
#1629 = ( GEOMETRIC_REPRESENTATION_CONTEXT(2) 
PARAMETRIC_REPRESENTATION_CONTEXT() REPRESENTATION_CONTEXT('2D SPACE',''
  ) );
#1630 = ORIENTED_EDGE('',*,*,#870,.T.);
#1631 = ORIENTED_EDGE('',*,*,#778,.T.);
#1632 = ORIENTED_EDGE('',*,*,#752,.T.);
#1633 = ADVANCED_FACE('',(#1634),#505,.F.);
#1634 = FACE_BOUND('',#1635,.F.);
#1635 = EDGE_LOOP('',(#1636,#1637,#1638,#1639,#1640,#1641));
#1636 = ORIENTED_EDGE('',*,*,#519,.F.);
#1637 = ORIENTED_EDGE('',*,*,#488,.F.);
#1638 = ORIENTED_EDGE('',*,*,#972,.T.);
#1639 = ORIENTED_EDGE('',*,*,#1587,.T.);
#1640 = ORIENTED_EDGE('',*,*,#1610,.T.);
#1641 = ORIENTED_EDGE('',*,*,#832,.T.);
#1642 = ( GEOMETRIC_REPRESENTATION_CONTEXT(3) 
GLOBAL_UNCERTAINTY_ASSIGNED_CONTEXT((#1646)) 
GLOBAL_UNIT_ASSIGNED_CONTEXT((#1643,#1644,#1645)) REPRESENTATION_CONTEXT
('Context #1','3D Context with UNIT and UNCERTAINTY') );
#1643 = ( LENGTH_UNIT() NAMED_UNIT(*) SI_UNIT(.MILLI.,.METRE.) );
#1644 = ( NAMED_UNIT(*) PLANE_ANGLE_UNIT() SI_UNIT($,.RADIAN.) );
#1645 = ( NAMED_UNIT(*) SI_UNIT($,.STERADIAN.) SOLID_ANGLE_UNIT() );
#1646 = UNCERTAINTY_MEASURE_WITH_UNIT(LENGTH_MEASURE(1.E-04),#1643,
  'distance_accuracy_value','confusion accuracy');
#1647 = PRODUCT_RELATED_PRODUCT_CATEGORY('part',$,(#7));
ENDSEC;
END-ISO-10303-21;
